<svg width="50" height="51" viewBox="0 0 50 51" fill="none" xmlns="http://www.w3.org/2000/svg">
<path opacity="0.3" d="M18.4995 10.625H12.9995L9.87451 17H15.3745L18.4995 10.625ZM40.1245 17L36.9995 10.625H31.4995L34.6245 17H40.1245ZM22.9162 35.445V21.25H11.3328L22.9162 35.445ZM27.0828 35.445L38.6662 21.25H27.0828V35.445ZM26.8328 10.625H23.1662L20.0412 17H29.9578L26.8328 10.625Z" fill="#4F0E82"/>
<path d="M39.5832 6.375H10.4165L4.1665 19.125L24.9998 44.625L45.8332 19.125L39.5832 6.375ZM36.9998 10.625L40.1248 17H34.604L31.479 10.625H36.9998ZM12.9998 10.625H18.5207L15.3957 17H9.87484L12.9998 10.625ZM22.9165 35.445L11.3332 21.25H22.9165V35.445ZM20.0415 17L23.1665 10.625H26.8332L29.9582 17H20.0415ZM27.0832 35.445V21.25H38.6665L27.0832 35.445Z" fill="#4F0E82"/>
</svg>
