<svg width="106" height="51" viewBox="0 0 106 51" fill="none" xmlns="http://www.w3.org/2000/svg">
<path opacity="0.3" d="M18.9995 10.625H13.4995L10.3745 17H15.8745L18.9995 10.625ZM40.6245 17L37.4995 10.625H31.9995L35.1245 17H40.6245ZM23.4162 35.445V21.25H11.8328L23.4162 35.445ZM27.5828 35.445L39.1662 21.25H27.5828V35.445ZM27.3328 10.625H23.6662L20.5412 17H30.4578L27.3328 10.625Z" fill="#4F0E82"/>
<path d="M40.0832 6.375H10.9165L4.6665 19.125L25.4998 44.625L46.3332 19.125L40.0832 6.375ZM37.4998 10.625L40.6248 17H35.104L31.979 10.625H37.4998ZM13.4998 10.625H19.0207L15.8957 17H10.3748L13.4998 10.625ZM23.4165 35.445L11.8332 21.25H23.4165V35.445ZM20.5415 17L23.6665 10.625H27.3332L30.4582 17H20.5415ZM27.5832 35.445V21.25H39.1665L27.5832 35.445Z" fill="#4F0E82"/>
<path opacity="0.3" d="M73.9995 10.625H68.4995L65.3745 17H70.8745L73.9995 10.625ZM95.6245 17L92.4995 10.625H86.9995L90.1245 17H95.6245ZM78.4162 35.445V21.25H66.8328L78.4162 35.445ZM82.5828 35.445L94.1662 21.25H82.5828V35.445ZM82.3328 10.625H78.6662L75.5412 17H85.4578L82.3328 10.625Z" fill="#4F0E82"/>
<path d="M95.0832 6.375H65.9165L59.6665 19.125L80.4998 44.625L101.333 19.125L95.0832 6.375ZM92.4998 10.625L95.6248 17H90.104L86.979 10.625H92.4998ZM68.4998 10.625H74.0207L70.8957 17H65.3748L68.4998 10.625ZM78.4165 35.445L66.8332 21.25H78.4165V35.445ZM75.5415 17L78.6665 10.625H82.3332L85.4582 17H75.5415ZM82.5832 35.445V21.25H94.1665L82.5832 35.445Z" fill="#4F0E82"/>
</svg>
