<svg width="24" height="24" viewBox="0 0 24 24" fill="none" xmlns="http://www.w3.org/2000/svg">
<path d="M16 14C16 14.5523 15.5523 15 15 15H14C13.4477 15 13 14.5523 13 14C13 13.4477 13.4477 13 14 13H15C15.5523 13 16 13.4477 16 14Z" fill="#4F0E82"/>
<path d="M15 12C15.5523 12 16 11.5523 16 11C16 10.4477 15.5523 10 15 10H14C13.4477 10 13 10.4477 13 11C13 11.5523 13.4477 12 14 12H15Z" fill="#4F0E82"/>
<path d="M11 14C11 14.5523 10.5523 15 10 15H9C8.44772 15 8 14.5523 8 14C8 13.4477 8.44772 13 9 13H10C10.5523 13 11 13.4477 11 14Z" fill="#4F0E82"/>
<path d="M10 12C10.5523 12 11 11.5523 11 11C11 10.4477 10.5523 10 10 10H9C8.44772 10 8 10.4477 8 11C8 11.5523 8.44772 12 9 12H10Z" fill="#4F0E82"/>
<path fill-rule="evenodd" clip-rule="evenodd" d="M12.9782 4.39948C12.3667 4.05974 11.622 4.06422 11.0146 4.41131L5.00772 7.84383C4.38457 8.19992 4 8.8626 4 9.58032V19C3.44772 19 3 19.4477 3 20C3 20.5523 3.44772 21 4 21H20C20.5523 21 21 20.5523 21 20C21 19.4477 20.5523 19 20 19V9.56619C20 8.86366 19.6314 8.21265 19.029 7.8512L17.5 6.93381V6C17.5 5.44771 17.0523 5 16.5 5C16.0125 5 15.6065 5.3488 15.5179 5.81045L12.9782 4.39948ZM13 19V17C13 16.4477 12.5523 16 12 16C11.4477 16 11 16.4477 11 17V19H6V9.58032L12.0069 6.1478L15.9998 8.36606L18 9.56619V19H13Z" fill="#4F0E82"/>
</svg>
