<svg width="568" height="311" viewBox="0 0 568 311" fill="none" xmlns="http://www.w3.org/2000/svg">
<path d="M132.937 45.2706L201.826 108.26L136.87 214.546L1.05859 131.878L113.252 35.431L132.937 45.2706Z" fill="#B492CC" stroke="#B492CC" stroke-miterlimit="10"/>
<path d="M384.881 96.4472L453.776 216.519L567.942 167.309L489.207 0L384.881 96.4472Z" fill="#9F53D9"/>
<path d="M201.826 108.26L227.417 116.132L256.942 102.353C256.942 102.353 256.942 78.7348 268.754 84.6409C280.567 90.5471 292.373 96.4532 292.373 96.4532C292.373 96.4532 323.865 98.42 329.771 100.393C335.677 102.359 343.55 104.332 337.644 114.172C331.737 124.011 341.583 125.984 355.356 120.078C369.135 114.172 378.975 108.266 378.975 108.266L439.997 200.773L400.633 216.519C400.633 216.519 404.572 248.011 400.633 261.79C396.693 275.569 375.041 269.662 375.041 269.662C375.041 269.662 382.914 285.408 373.075 285.408C363.235 285.408 349.456 281.469 349.456 281.469L337.644 287.375L312.052 275.563L304.179 265.723L306.146 285.408L292.367 297.221L272.682 295.254L252.997 305.093L231.345 299.187C231.345 299.187 207.726 301.154 205.753 293.281C203.787 285.408 199.847 277.535 199.847 277.535L182.135 253.917L166.389 238.171L172.295 216.519L136.864 196.834L201.826 108.26Z" fill="white"/>
<path d="M171.318 223.391C171.945 223.342 172.573 223.372 173.194 223.457C173.399 223.463 173.598 223.421 173.773 223.324C173.96 223.264 174.123 223.161 174.256 223.01C174.401 222.872 174.509 222.715 174.57 222.528C174.666 222.347 174.708 222.154 174.702 221.949C174.684 221.557 174.558 221.152 174.262 220.881C174.159 220.802 174.057 220.724 173.954 220.646C173.719 220.507 173.466 220.44 173.194 220.44C172.573 220.362 171.945 220.326 171.318 220.374C171.113 220.368 170.914 220.41 170.739 220.507C170.552 220.567 170.389 220.67 170.256 220.821C170.111 220.959 170.003 221.116 169.942 221.303C169.846 221.484 169.804 221.677 169.81 221.882C169.828 222.274 169.954 222.679 170.25 222.95C170.534 223.203 170.926 223.421 171.318 223.391Z" fill="black"/>
<path d="M179.698 220.326C182.69 219.101 185.332 217.255 188.252 215.892C189.772 215.18 191.474 214.752 193.054 214.184C194.689 213.605 196.312 213.008 197.935 212.399C204.444 209.949 210.857 207.265 217.258 204.55C220.305 203.259 223.345 201.739 226.506 200.749C229.185 199.911 232.111 199.139 234.934 199.597C239.61 200.357 242.506 204.339 242.777 208.773C242.916 210.981 242.554 213.195 241.613 215.21C240.418 217.768 238.415 219.886 236.418 221.834C234.216 223.988 231.864 225.985 229.782 228.265C227.737 230.503 225.222 232.271 222.766 234.014C220.299 235.77 217.789 237.52 215.605 239.625C215.135 240.077 214.724 240.626 214.163 240.97C213.463 241.399 212.758 241.815 212.04 242.219C210.688 242.979 209.301 243.691 207.889 244.343C202.333 246.919 196.282 248.584 190.177 249.127C188.596 249.266 187.015 249.247 185.435 249.338C184.029 249.422 182.684 249.525 181.296 249.235C178.696 248.692 175.794 247.287 174.304 245.018C173.604 243.957 173.236 242.847 172.76 241.658C172.144 240.132 171.571 238.593 171.065 237.031C170.075 233.984 169.339 230.835 169.164 227.626C169.128 226.98 169.025 226.178 169.182 225.611C169.345 225.019 169.659 224.452 169.834 223.837C170.371 221.967 167.463 221.171 166.926 223.035C166.745 223.668 166.419 224.259 166.25 224.893C166.039 225.689 166.1 226.54 166.136 227.348C166.214 229.11 166.443 230.865 166.781 232.597C167.439 235.981 168.573 239.257 169.858 242.454C170.389 243.77 170.835 245.145 171.589 246.352C172.47 247.757 173.635 248.873 175.016 249.778C177.671 251.522 180.771 252.541 183.969 252.463C190.641 252.294 197.199 251.486 203.539 249.314C206.683 248.24 209.741 246.895 212.661 245.32C214.073 244.56 215.774 243.806 216.878 242.629C217.946 241.489 219.128 240.464 220.353 239.492C222.863 237.514 225.559 235.782 228.081 233.821C230.687 231.788 232.829 229.339 235.236 227.089C239.519 223.077 244.346 218.926 245.504 212.875C246.433 208.031 245.275 202.481 241.287 199.265C238.868 197.317 235.882 196.363 232.781 196.466C229.553 196.569 226.259 197.473 223.303 198.728C216.643 201.552 210.007 204.411 203.286 207.096C199.908 208.447 196.505 209.75 193.078 210.981C191.347 211.602 189.573 212.133 187.854 212.791C186.249 213.406 184.741 214.299 183.251 215.15C181.833 215.964 180.409 216.791 178.895 217.412C178.141 217.72 177.61 218.413 177.839 219.27C178.039 219.988 178.937 220.64 179.698 220.326Z" fill="black"/>
<path d="M183.552 251.184C183.733 254.08 183.751 257.006 184.294 259.865C184.849 262.785 186.128 265.446 188.077 267.696C189.977 269.892 192.45 271.533 195.237 272.347C197.807 273.101 200.54 273.162 203.195 273.023C206.103 272.866 208.992 272.528 211.9 272.413C215.327 272.281 218.766 272.293 222.174 271.846C225.589 271.4 228.786 270.465 231.863 268.902C234.686 267.473 237.28 265.651 239.784 263.726C242.306 261.79 244.749 259.751 247.325 257.886C249.648 256.197 251.765 254.381 253.551 252.119C255.445 249.712 257.044 247.088 258.824 244.602C260.76 241.899 262.757 239.221 264.259 236.24C265.406 233.966 266.558 231.643 267.409 229.236C268.223 226.938 268.76 224.326 268.072 221.924C266.866 217.689 262.431 216.018 258.48 215.469C254.251 214.878 249.841 215.204 245.732 216.368C242.083 217.406 238.185 219.258 236.134 222.618C235.682 223.36 235.332 224.193 235.127 225.037C234.662 226.92 237.576 227.728 238.035 225.84C238.083 225.653 238.131 225.466 238.191 225.285C238.216 225.218 238.372 224.79 238.318 224.929C238.264 225.056 238.469 224.621 238.517 224.531C238.62 224.344 238.728 224.157 238.843 223.976C238.939 223.831 239.036 223.686 239.139 223.547C238.964 223.783 239.253 223.415 239.314 223.336C239.579 223.029 239.863 222.739 240.164 222.467C240.556 222.112 240.592 222.087 240.9 221.864C241.274 221.593 241.666 221.339 242.071 221.11C242.42 220.905 242.776 220.718 243.144 220.537C243.591 220.32 243.905 220.181 244.218 220.054C247.88 218.6 251.578 218.076 255.463 218.208C255.946 218.226 256.429 218.25 256.911 218.293C257.448 218.341 257.72 218.371 258.058 218.425C258.878 218.552 259.686 218.721 260.483 218.95C260.875 219.065 261.255 219.192 261.635 219.336C261.714 219.367 261.798 219.397 261.876 219.433C261.822 219.409 261.611 219.312 261.87 219.433C262.057 219.517 262.244 219.608 262.431 219.698C263.155 220.072 263.819 220.531 264.344 221.164C265.611 222.679 265.514 224.718 265.05 226.612C264.507 228.82 263.517 230.871 262.528 232.904C261.261 235.523 259.831 237.984 258.154 240.367C256.399 242.859 254.655 245.35 252.936 247.866C251.524 249.929 249.98 251.86 248.091 253.506C245.895 255.425 243.422 257.054 241.135 258.864C236.575 262.471 231.827 266.332 226.144 267.991C220.207 269.723 213.861 269.15 207.762 269.65C203.014 270.043 197.705 270.845 193.391 268.293C191.093 266.93 189.211 264.758 188.143 262.308C187.166 260.07 186.918 257.597 186.773 255.184C186.695 253.85 186.641 252.511 186.556 251.178C186.448 249.253 183.431 249.241 183.552 251.184Z" fill="black"/>
<path d="M195.54 276.992C195.908 282 196.921 286.941 199.956 291.055C203.34 295.64 208.155 299.061 213.488 301.015C219.321 303.151 225.589 302.373 231.429 300.671C234.253 299.851 236.979 298.747 239.755 297.788C242.614 296.798 245.202 295.574 247.326 293.366C249.244 291.363 250.716 288.974 252.701 287.031C254.119 285.644 255.645 284.353 257.087 282.989C260.508 279.743 263.802 276.359 266.878 272.788C270.172 268.969 273.279 264.927 275.813 260.553C278.111 256.589 279.97 252.294 280.543 247.721C281.056 243.625 280.446 238.744 276.826 236.192C273.84 234.093 269.744 234.382 266.299 234.63C265.412 234.696 264.526 234.762 263.639 234.811C261.708 234.919 261.696 237.936 263.639 237.827C265.376 237.731 267.108 237.556 268.845 237.501C270.613 237.447 271.97 237.471 273.502 237.924C273.683 237.978 273.858 238.038 274.033 238.099C274.118 238.129 274.208 238.165 274.293 238.195C274.045 238.093 274.263 238.183 274.311 238.207C274.661 238.382 274.986 238.569 275.312 238.786C275.584 238.967 275.306 238.75 275.541 238.973C275.674 239.1 275.813 239.227 275.94 239.36C276.012 239.432 276.265 239.74 276.235 239.697C276.235 239.703 276.458 240.029 276.537 240.162C277.448 241.682 277.707 243.733 277.677 245.64C277.617 249.495 276.169 253.422 274.347 256.945C272.211 261.066 269.503 264.885 266.571 268.474C263.645 272.052 260.483 275.436 257.196 278.676C254.203 281.62 250.849 284.268 248.237 287.562C246.662 289.547 245.136 291.743 242.946 293.106C240.66 294.53 237.939 295.188 235.435 296.135C230.126 298.144 224.286 299.851 218.549 299.181C213.457 298.584 208.42 295.64 204.824 292.087C203.183 290.464 201.784 288.654 200.758 286.579C199.799 284.642 199.262 282.519 198.924 280.389C198.743 279.261 198.641 278.121 198.556 276.98C198.496 276.166 197.905 275.472 197.048 275.472C196.282 275.484 195.479 276.178 195.54 276.992Z" fill="black"/>
<path d="M226.783 299.996C226.506 302.427 227.236 304.9 229.13 306.523C230.916 308.062 233.245 308.804 235.537 309.16C240.846 309.998 246.668 309.769 251.633 307.639C254.806 306.276 257.605 304.189 260.145 301.872C263.005 299.254 265.713 296.388 268.277 293.474C270.908 290.482 272.965 287.091 275.451 283.991C276.669 282.47 277.906 280.956 278.962 279.321C279.933 277.819 280.705 276.202 281.369 274.543C282.817 270.917 283.522 266.912 281.857 263.244C280.434 260.107 277.375 257.012 273.683 257.199C271.752 257.301 271.74 260.318 273.683 260.215C276.144 260.088 278.099 262.351 279.125 264.498C280.385 267.141 279.752 270.151 278.805 272.818C277.689 275.955 275.873 278.652 273.804 281.24C272.645 282.694 271.457 284.129 270.413 285.674C269.436 287.11 268.489 288.539 267.379 289.885C265.026 292.738 262.42 295.405 259.801 298.017C257.587 300.231 255.216 302.294 252.489 303.851C249.877 305.341 246.975 306.276 243.965 306.451C242.016 306.566 240.05 306.59 238.101 306.445C236.056 306.294 233.667 305.89 231.942 304.858C231.712 304.719 231.477 304.569 231.266 304.406C231.489 304.581 231.26 304.394 231.212 304.345C231.097 304.243 230.982 304.14 230.874 304.032C230.813 303.971 230.753 303.905 230.693 303.839C230.632 303.772 230.578 303.706 230.524 303.64C230.626 303.772 230.626 303.772 230.524 303.634C230.385 303.434 230.27 303.223 230.15 303.012C230.114 302.952 229.993 302.68 230.108 302.946C230.053 302.819 230.011 302.686 229.969 302.554C229.884 302.282 229.812 301.999 229.77 301.715C229.812 301.981 229.764 301.655 229.764 301.588C229.752 301.401 229.74 301.214 229.74 301.027C229.74 300.684 229.764 300.34 229.806 299.996C229.896 299.187 229.046 298.488 228.298 298.488C227.399 298.488 226.874 299.181 226.783 299.996Z" fill="black"/>
<path d="M270.299 120.12C268.513 115.487 264.966 111.837 262.758 107.421C260.61 103.132 259.578 98.3114 259.645 93.5153C259.651 93.1352 259.675 92.7552 259.711 92.3751C259.741 92.0976 259.693 92.4354 259.741 92.164C259.778 91.9709 259.814 91.7778 259.856 91.5848C259.928 91.2651 260.019 90.9514 260.127 90.6376C260.158 90.5532 260.296 90.2033 260.248 90.3179C260.2 90.4265 260.375 90.0585 260.423 89.968C260.562 89.7025 260.719 89.4612 260.882 89.2139C261.069 88.9243 260.815 89.2682 260.978 89.0751C261.081 88.9484 261.189 88.8278 261.298 88.7071C261.479 88.5141 261.672 88.3452 261.871 88.1642C262.142 87.9168 261.78 88.2185 261.992 88.0616C262.124 87.9651 262.257 87.8746 262.396 87.7901C262.637 87.6393 262.891 87.4945 263.144 87.3678C263.252 87.3135 263.367 87.2592 263.482 87.211C263.741 87.0903 263.518 87.1929 263.47 87.217C263.548 87.1869 263.627 87.1567 263.705 87.1265C264.302 86.9154 264.905 86.7464 265.527 86.6258C265.684 86.5956 265.835 86.5715 265.991 86.5474C266.257 86.5051 265.822 86.5594 266.203 86.5172C266.552 86.481 266.896 86.4508 267.246 86.4327C267.922 86.4026 268.592 86.4086 269.267 86.4448C270.727 86.5232 271.741 86.6861 273.273 87.0421C274.685 87.3678 276.072 87.8022 277.418 88.3271C277.581 88.3874 277.743 88.4537 277.9 88.5201C278.19 88.6347 277.942 88.5322 278.154 88.6287C278.461 88.7675 278.769 88.9062 279.077 89.051C279.686 89.3406 280.277 89.6543 280.862 89.9921C281.381 90.2938 281.894 90.6195 282.383 90.9694C282.497 91.0539 282.612 91.1384 282.727 91.2228C282.938 91.3797 282.582 91.0961 282.841 91.3133C283.263 91.6753 283.686 92.0312 284.096 92.4113C287.915 95.9284 290.979 100.164 294.877 103.608C298.696 106.981 303.057 109.683 306.858 113.074C310.393 116.235 313.5 120.006 317.596 122.485C319.056 123.372 320.649 124.005 322.157 124.796C323.569 125.538 324.818 126.334 325.578 127.625C326.006 128.349 326.217 129.139 326.344 130.008C326.465 130.816 327.484 131.257 328.202 131.064C329.065 130.829 329.373 130.02 329.258 129.206C328.968 127.233 328.021 125.411 326.519 124.09C325.156 122.889 323.539 122.093 321.916 121.315C320.148 120.47 318.459 119.559 316.927 118.328C314.948 116.742 313.168 114.926 311.358 113.158C309.524 111.367 307.606 109.72 305.573 108.157C303.492 106.564 301.362 105.038 299.317 103.397C297.193 101.696 295.202 99.8619 293.35 97.871C291.51 95.8923 289.779 93.817 287.897 91.8864C285.526 89.4612 282.986 87.4825 279.885 86.107C276.971 84.8159 273.925 83.9351 270.757 83.5611C267.868 83.2172 264.839 83.3681 262.142 84.5384C259.578 85.6545 257.702 87.8565 257.015 90.5773C256.52 92.532 256.598 94.5952 256.761 96.586C256.972 99.1922 257.443 101.786 258.251 104.278C259.054 106.745 260.146 109.128 261.497 111.342C262.836 113.538 264.411 115.583 265.762 117.773C266.384 118.781 266.981 119.819 267.409 120.929C267.705 121.689 268.423 122.214 269.267 121.984C269.973 121.779 270.594 120.886 270.299 120.12Z" fill="black"/>
<path d="M319.703 123.879C325.85 124.21 331.991 123.782 338.054 122.72C343.309 121.803 348.437 120.482 353.372 118.437C362.699 114.57 370.958 108.724 378.499 102.064C386.088 95.3613 392.971 87.9107 400.018 80.6532C404.482 76.0562 408.796 71.3023 413.224 66.6691C417.67 62.0298 422.134 57.4026 426.556 52.7392C428.776 50.4045 430.978 48.0577 433.174 45.6928C435.382 43.3099 437.331 40.6856 439.364 38.1457C439.774 37.6329 440.112 37.277 440.655 36.909C441.355 36.4324 441.868 35.9558 442.368 35.2741C443.195 34.152 444.064 33.06 444.963 31.9983C446.76 29.8687 448.685 27.8537 450.682 25.9171C451.659 24.97 452.661 24.0349 453.662 23.1119C455.092 21.7967 452.956 19.6671 451.526 20.9762C447.388 24.789 443.479 28.7948 440.094 33.3014C439.72 33.796 439.449 34.0796 438.936 34.4235C438.351 34.8216 437.856 35.2138 437.409 35.7688C436.378 37.0598 435.346 38.3509 434.315 39.6419C433.283 40.9329 432.263 42.2239 431.135 43.4426C430.055 44.6069 428.97 45.7713 427.878 46.9296C419.154 56.2202 410.219 65.3056 401.52 74.6143C394.425 82.2037 387.27 89.8111 379.675 96.9057C372.532 103.572 364.786 109.677 355.96 113.973C346.126 118.763 334.96 120.947 324.058 120.965C322.604 120.965 321.15 120.923 319.696 120.844C317.76 120.76 317.766 123.776 319.703 123.879Z" fill="black"/>
<path d="M220.811 115.553C223.182 115.415 225.559 115.191 227.894 114.745C229.052 114.522 230.198 114.244 231.32 113.888C231.863 113.719 232.418 113.55 232.943 113.315C233.565 113.038 234.15 112.646 234.759 112.332C239 110.136 243.646 108.845 248.122 107.216C250.752 106.257 253.377 105.267 255.983 104.242C256.743 103.946 257.268 103.228 257.039 102.384C256.839 101.66 255.947 101.032 255.18 101.328C250.704 103.083 246.197 104.749 241.649 106.305C239.35 107.089 237.088 107.916 234.874 108.929C233.812 109.412 232.823 110.015 231.779 110.534C230.796 111.023 229.613 111.27 228.551 111.523C226.012 112.133 223.417 112.386 220.817 112.537C218.887 112.652 218.869 115.668 220.811 115.553Z" fill="black"/>
<path d="M285.743 93.4248C287.685 93.4248 287.685 90.4083 285.743 90.4083C283.806 90.4083 283.8 93.4248 285.743 93.4248Z" fill="black"/>
<path d="M289.061 97.8589C291.981 97.684 294.883 97.2013 297.815 97.1953C300.837 97.1893 303.727 98.1123 306.671 98.6914C309.838 99.3188 312.957 99.6446 316.185 99.4938C319.075 99.355 322.055 98.987 324.927 99.524C326.99 99.9101 328.987 100.803 330.923 101.593C332.504 102.245 334.404 103.15 335.937 104.224C336.558 104.658 337.234 105.231 337.819 105.895C338.09 106.196 338.187 106.323 338.446 106.739C338.561 106.92 338.663 107.101 338.76 107.294C338.905 107.584 338.899 107.566 338.959 107.735C339.629 109.593 339.412 111.511 338.139 113.243C337.276 114.419 336.19 115.463 335.164 116.5C334.32 117.351 333.246 117.743 332.1 118.015C329.451 118.636 326.718 118.847 324.752 120.971C323.437 122.395 325.56 124.53 326.887 123.106C328.498 121.369 331.044 121.405 333.198 120.85C334.483 120.518 335.689 119.987 336.727 119.149C337.777 118.298 338.718 117.2 339.605 116.187C341.42 114.111 342.603 111.753 342.295 108.935C342.06 106.788 341.071 104.881 339.55 103.355C336.667 100.447 332.613 99.0293 328.878 97.5814C325.976 96.4593 323.008 96.1576 319.913 96.2783C316.71 96.405 313.525 96.7368 310.327 96.2843C308.463 96.0189 306.617 95.6207 304.777 95.2165C303.021 94.8244 301.278 94.3719 299.48 94.2392C295.993 93.9737 292.524 94.6434 289.049 94.8485C287.131 94.9571 287.119 97.9796 289.061 97.8589Z" fill="black"/>
<path d="M218.519 118.576C224.486 119.42 230.543 119.541 236.491 120.53C239.646 121.055 242.783 121.61 245.969 121.978C249.13 122.346 252.309 122.594 255.488 122.763C261.6 123.082 267.723 123.1 273.846 123.137C276.935 123.155 280.018 123.179 283.107 123.245C285.99 123.312 288.85 123.493 291.734 123.674C293.182 123.764 294.617 123.788 296.059 123.933C297.459 124.072 298.853 124.241 300.24 124.44C303.269 124.874 306.273 125.435 309.259 126.081C314.182 127.148 318.984 128.397 323.569 130.527C332.045 134.472 339.309 140.445 345.77 147.123C352.322 153.898 358.107 161.361 364.056 168.661C364.78 169.547 365.51 170.434 366.239 171.321C366.758 171.948 367.832 171.858 368.375 171.321C368.997 170.7 368.894 169.819 368.375 169.185C362.33 161.886 356.575 154.339 350.15 147.371C343.743 140.421 336.576 134.002 328.214 129.489C323.919 127.167 319.328 125.357 314.586 124.18C308.813 122.751 302.913 121.659 297 121.007C294.099 120.687 291.167 120.591 288.247 120.392C285.261 120.187 282.25 120.187 279.252 120.15C273.092 120.078 266.933 120.114 260.773 119.939C254.493 119.758 248.201 119.36 241.987 118.413C238.856 117.936 235.755 117.315 232.606 116.959C229.571 116.615 226.531 116.41 223.49 116.12C222.097 115.988 220.709 115.843 219.327 115.644C218.519 115.529 217.705 115.843 217.469 116.7C217.276 117.43 217.711 118.461 218.519 118.576Z" fill="black"/>
<path d="M367.85 172.322C367.271 171.966 367 171.611 367 170.959C366.245 171.393 365.485 171.828 364.731 172.262C367.241 173.987 369.081 176.624 370.764 179.109C372.562 181.758 374.293 184.436 376.169 187.024C378.468 190.192 380.411 193.594 382.329 196.997C384.199 200.321 386.124 203.597 388.145 206.83C390.172 210.07 392.15 213.418 393.417 217.044C394.745 220.845 395.269 224.875 396.259 228.76C396.76 230.733 397.453 232.645 398.039 234.594C398.618 236.524 399.124 238.479 399.589 240.439C400.53 244.451 401.284 248.505 402.147 252.535C402.853 255.829 403.8 259.081 404.403 262.399C404.832 264.764 405.006 267.328 403.788 269.319C402.418 271.557 399.39 272.655 396.862 273.246C394.105 273.885 391.059 273.819 388.525 272.456C387.282 271.786 386.106 270.845 385.291 269.681C384.453 268.48 383.94 267.111 383.53 265.711C382.631 262.628 382.19 259.449 381.038 256.438C378.317 249.332 373.817 243.136 370.245 236.464C366.378 229.242 362.982 221.786 359.012 214.625C355.115 207.597 350.397 201.135 345.607 194.698C344.437 193.124 343.266 191.549 342.108 189.969C341.625 189.311 340.799 188.985 340.045 189.426C339.333 189.842 339.098 190.777 339.502 191.489C343.019 197.642 347.447 203.199 351.549 208.966C353.589 211.838 355.555 214.77 357.269 217.852C359.127 221.195 360.611 224.736 362.125 228.241C365.274 235.535 368.242 242.913 371.548 250.14C373.014 253.344 374.625 256.481 376.031 259.708C377.358 262.749 378.546 266.013 378.824 269.337C379.065 272.233 378.438 274.863 377.316 277.511C377.086 278.048 376.839 278.573 376.562 279.086C376.435 279.321 376.302 279.55 376.151 279.774C375.898 280.148 376.453 279.502 376.013 279.942C375.868 280.087 375.729 280.244 375.566 280.365C374.541 281.125 373.093 281.276 371.868 281.457C368.435 281.957 365.184 283.224 361.685 283.315C360.098 283.357 358.445 283.279 356.955 282.687C355.911 282.271 355.085 281.589 354.288 280.745C352.129 278.464 350.174 275.882 348.412 273.288C346.355 270.26 344.545 267.074 342.753 263.889C339.23 257.609 335.496 251.449 331.882 245.223C328.287 239.022 324.558 232.862 319.955 227.342C317.681 224.615 315.28 222.021 313.096 219.216C310.912 216.417 308.789 213.563 306.418 210.909C305.265 209.611 304.053 208.375 302.762 207.21C301.561 206.118 299.365 207.56 300.391 209.038C302.442 211.994 304.964 214.534 307.564 217.008C310.224 219.548 312.794 222.148 315.232 224.905C320.287 230.618 325.029 236.633 329.62 242.726C334.169 248.753 338.494 254.96 342.283 261.5C345.752 267.491 349.571 274.157 349.927 281.24C350.065 284.015 349.679 287.309 347.785 289.384C346.228 291.085 344.038 291.863 341.704 292.207C339.357 292.551 336.57 292.4 334.241 292.05C331.152 291.592 328.1 290.784 325.331 289.318C322.664 287.906 320.148 285.969 318.115 283.737C317.126 282.651 316.559 281.372 316.01 280.027C315.31 278.308 314.526 276.63 313.675 274.977C311.962 271.665 310.104 268.402 308.197 265.198C306.273 261.971 304.053 258.936 301.796 255.938C297.061 249.627 292.614 243.16 288.307 236.554C286.28 233.447 284.259 230.334 282.22 227.233C280.271 224.265 278.25 221.333 275.946 218.631C274.872 217.37 273.732 216.169 272.501 215.065C271.892 215.855 271.282 216.646 270.673 217.436C272.996 219.113 274.618 222.003 276.066 224.476C276.863 225.834 277.623 227.209 278.437 228.555C279.372 230.093 280.398 231.577 281.321 233.128C283.384 236.596 285.2 240.216 286.907 243.872C288.645 247.588 290.394 251.317 291.999 255.093C293.574 258.797 294.841 262.628 296.367 266.35C297.151 268.257 297.984 270.133 298.943 271.955C299.812 273.608 300.741 275.231 301.561 276.914C302.376 278.579 302.997 280.292 303.474 282.084C303.884 283.61 304.511 285.064 305.006 286.561C305.223 287.224 305.446 287.906 305.549 288.6C305.633 289.167 305.615 289.499 305.38 290.108C305.042 290.983 304.035 292.02 303.106 292.75C300.493 294.813 297.688 295.881 294.581 296.714C290.358 297.842 285.996 298.047 281.653 298.288C279.722 298.391 279.71 301.407 281.653 301.305C288.983 300.907 296.602 300.382 303.027 296.454C305.531 294.922 308.252 292.702 308.577 289.583C308.74 288.008 308.137 286.361 307.618 284.908C307.033 283.267 306.526 281.638 306.013 279.973C304.831 276.148 302.677 272.788 300.916 269.222C299.052 265.446 297.7 261.452 296.192 257.53C294.654 253.525 292.832 249.639 291.058 245.736C289.314 241.899 287.523 238.074 285.49 234.376C283.499 230.745 281.176 227.318 279.101 223.728C277.237 220.501 275.258 217.062 272.181 214.836C270.794 213.834 269.086 216.067 270.353 217.207C275.638 221.967 279.276 228.277 283.131 234.165C287.595 240.982 291.975 247.848 296.856 254.381C299.154 257.464 301.519 260.499 303.655 263.702C305.802 266.912 307.654 270.32 309.531 273.692C310.442 275.327 311.328 276.986 312.125 278.682C312.891 280.317 313.434 282.078 314.327 283.653C315.865 286.367 318.61 288.539 321.12 290.301C326.236 293.884 332.727 295.459 338.929 295.417C341.668 295.399 344.467 294.976 346.934 293.74C349.444 292.485 351.26 290.283 352.141 287.628C354.481 280.564 351.567 272.848 348.412 266.537C344.949 259.618 340.781 253.078 336.292 246.78C331.762 240.421 326.947 234.244 321.976 228.223C319.443 225.152 316.848 222.13 314.11 219.246C311.618 216.616 308.867 214.245 306.363 211.62C305.139 210.335 303.986 208.99 302.973 207.53C302.183 208.139 301.392 208.749 300.602 209.358C306.062 214.305 309.977 220.603 314.809 226.105C317.204 228.838 319.539 231.547 321.626 234.533C323.726 237.538 325.656 240.657 327.527 243.812C329.391 246.961 331.195 250.152 333.047 253.313C334.911 256.499 336.859 259.636 338.675 262.851C340.515 266.121 342.313 269.415 344.316 272.588C346.253 275.659 348.455 278.489 350.747 281.3C352.509 283.46 354.469 285.306 357.269 285.963C361.039 286.85 365.111 286.205 368.791 285.185C370.318 284.763 371.832 284.527 373.388 284.268C374.939 284.009 376.453 283.544 377.672 282.519C378.709 281.644 379.313 280.377 379.849 279.158C380.405 277.891 380.917 276.588 381.297 275.255C383.264 268.323 380.043 261.09 377.105 254.936C373.714 247.836 370.589 240.638 367.53 233.387C364.514 226.232 361.666 218.944 357.468 212.387C353.552 206.269 348.925 200.647 344.919 194.59C343.924 193.087 342.977 191.555 342.078 189.993C341.209 190.499 340.34 191.006 339.472 191.513C344.34 198.179 349.474 204.677 353.794 211.729C358.21 218.938 361.745 226.648 365.594 234.165C367.404 237.694 369.316 241.151 371.361 244.548C373.376 247.902 375.409 251.25 377.056 254.81C377.804 256.432 378.48 258.104 378.957 259.823C379.391 261.385 379.699 262.984 380.073 264.565C380.845 267.816 381.943 271.044 384.507 273.337C389.55 277.843 397.309 277.421 402.907 274.151C405.574 272.594 407.227 270.115 407.607 267.056C407.963 264.173 407.251 261.21 406.575 258.423C404.632 250.442 403.396 242.273 401.079 234.388C400.494 232.386 399.77 230.431 399.239 228.416C398.708 226.383 398.298 224.326 397.852 222.274C397.423 220.302 396.989 218.317 396.331 216.404C395.668 214.474 394.823 212.604 393.876 210.794C392.024 207.247 389.749 203.953 387.728 200.502C385.707 197.045 383.831 193.498 381.744 190.083C379.856 186.994 377.623 184.147 375.639 181.124C373.768 178.283 371.953 175.369 369.69 172.817C368.653 171.641 367.506 170.585 366.215 169.698C365.25 169.035 363.947 169.921 363.947 171.001C363.941 172.733 364.84 174.078 366.288 174.965C367.989 175.942 369.503 173.33 367.85 172.322Z" fill="black"/>
<path d="M397.604 226.479C403.607 227.083 407.238 221.478 411.522 218.419C417.549 214.112 424.293 210.927 430.815 207.464C434.796 205.352 438.778 203.241 442.784 201.178C444.509 200.285 442.983 197.684 441.264 198.571C434.501 202.064 427.762 205.606 421.048 209.189C417.898 210.872 414.779 212.622 411.799 214.589C409.332 216.217 407.232 218.148 405.024 220.103C402.913 221.979 400.53 223.758 397.604 223.469C396.789 223.384 396.096 224.223 396.096 224.977C396.096 225.852 396.789 226.395 397.604 226.479Z" fill="black"/>
<path d="M270.516 291.471C270.752 293.197 271.886 294.632 273.038 295.869C273.575 296.442 274.13 296.997 274.643 297.595C274.703 297.667 274.77 297.739 274.83 297.818C274.848 297.842 274.872 297.866 274.89 297.89C274.993 298.017 274.969 297.987 274.83 297.812C274.836 297.908 275.077 298.156 275.132 298.234C275.349 298.56 275.536 298.898 275.687 299.254C275.994 299.984 277.128 300.195 277.75 299.797C278.51 299.308 278.625 298.512 278.293 297.733C277.665 296.255 276.459 295.103 275.373 293.957C275.113 293.685 274.86 293.408 274.619 293.124C274.571 293.07 274.353 292.726 274.281 292.714C274.42 292.895 274.438 292.919 274.341 292.792C274.323 292.768 274.305 292.738 274.287 292.714C274.233 292.636 274.178 292.557 274.124 292.479C274.022 292.322 273.925 292.165 273.835 291.996C273.792 291.912 273.75 291.833 273.708 291.749C273.69 291.707 273.666 291.664 273.648 291.622C273.599 291.52 273.623 291.568 273.708 291.767C273.732 291.658 273.563 291.357 273.533 291.236C273.485 291.049 273.448 290.862 273.424 290.675C273.316 289.891 272.272 289.396 271.566 289.619C270.703 289.897 270.402 290.627 270.516 291.471Z" fill="black"/>
<path d="M237.323 219.047C237.365 219.385 237.413 219.717 237.456 220.054C238.391 219.801 239.332 219.548 240.267 219.294C237.89 215.059 235.049 210.854 231 208.049C227.888 205.889 223.417 205.214 219.797 206.354C211.146 209.075 213.185 221.647 217.813 227.089C219.194 228.718 221.082 229.954 223.176 230.449C225.529 231.004 227.978 230.696 230.252 229.96C230.711 229.81 231.23 229.423 231.308 228.905C231.375 228.476 231.435 228.048 231.501 227.62C231.622 226.817 231.302 225.997 230.445 225.761C229.734 225.568 228.714 226.003 228.587 226.817C228.521 227.246 228.461 227.674 228.394 228.102C228.744 227.752 229.094 227.402 229.45 227.046C227.9 227.547 226.114 227.879 224.6 227.662C223.097 227.445 221.812 226.811 220.733 225.792C218.362 223.553 217.258 220.338 216.974 217.135C216.703 214.094 217.143 210.649 220.075 209.443C222.76 208.339 226.367 208.755 228.75 210.179C232.744 212.568 235.435 216.857 237.655 220.815C238.336 222.027 240.671 221.593 240.466 220.054C240.424 219.717 240.376 219.385 240.333 219.047C240.225 218.239 239.718 217.539 238.825 217.539C238.101 217.539 237.214 218.232 237.323 219.047Z" fill="black"/>
<path d="M262.45 236.747C260.121 234.648 257.913 232.416 255.392 230.539C253.111 228.844 250.294 227.306 247.356 227.867C243.833 228.537 242.005 232.144 240.84 235.173C239.368 238.991 238.988 243.866 241.866 247.16C244.195 249.82 248.013 249.229 251.15 249.109C253.087 249.03 253.093 246.014 251.15 246.092C249.811 246.146 248.472 246.273 247.127 246.231C246.119 246.201 245.299 246.086 244.502 245.525C244.719 245.682 244.327 245.38 244.327 245.374C244.249 245.302 244.176 245.229 244.104 245.151C243.893 244.928 243.845 244.849 243.67 244.56C243.272 243.902 243.03 243.178 242.861 242.43C242.457 240.614 242.807 238.732 243.38 236.995C243.893 235.426 244.569 233.761 245.6 232.452C245.92 232.048 246.427 231.559 246.722 231.36C247.265 230.998 247.368 230.956 248.013 230.805C248.303 230.739 248.11 230.781 248.038 230.787C248.182 230.769 248.327 230.763 248.472 230.757C248.713 230.751 248.961 230.763 249.202 230.787C248.955 230.757 249.582 230.871 249.691 230.895C249.998 230.974 250.294 231.07 250.589 231.185C250.891 231.3 251.525 231.619 251.971 231.879C252.55 232.217 253.099 232.585 253.642 232.977C256.031 234.714 258.118 236.892 260.32 238.877C261.756 240.18 263.892 238.05 262.45 236.747Z" fill="black"/>
<path d="M274.884 251.027C273.955 250.87 273.207 250.345 272.447 249.808C271.608 249.223 270.8 248.668 269.883 248.216C269.189 247.872 268.616 247.088 267.795 246.744C266.848 246.346 265.889 246.551 264.99 246.961C263.416 247.679 262.106 249.054 260.978 250.333C260.128 251.299 259.265 252.306 258.631 253.434C257.359 255.703 256.701 258.309 256.399 260.879C256.104 263.382 256.224 266.127 257.419 268.402C258.939 271.303 262.052 272.039 265.069 271.394C266.963 270.99 266.16 268.082 264.266 268.486C263.657 268.619 263.434 268.661 262.71 268.637C262.577 268.631 262.444 268.625 262.311 268.613C262.679 268.649 262.275 268.607 262.209 268.595C261.937 268.534 261.672 268.462 261.413 268.359C261.781 268.504 261.214 268.233 261.123 268.184C261.045 268.142 260.966 268.082 260.894 268.034C261.207 268.251 260.918 268.052 260.858 267.997C260.701 267.847 260.544 267.69 260.399 267.527C260.158 267.243 260.568 267.792 260.369 267.479C260.284 267.352 260.206 267.225 260.128 267.099C260.013 266.899 259.91 266.688 259.814 266.477C259.959 266.815 259.711 266.151 259.675 266.043C259.524 265.554 259.422 265.047 259.349 264.541C259.398 264.903 259.343 264.456 259.343 264.408C259.331 264.275 259.319 264.136 259.313 264.004C259.295 263.726 259.283 263.449 259.283 263.171C259.277 262.604 259.301 262.031 259.355 261.47C259.416 260.776 259.422 260.746 259.554 260.01C259.663 259.401 259.802 258.797 259.971 258.206C260.103 257.724 260.254 257.241 260.423 256.77C260.514 256.523 260.604 256.282 260.707 256.04C260.568 256.366 260.737 255.986 260.755 255.938C260.821 255.793 260.894 255.642 260.966 255.497C261.153 255.123 261.352 254.761 261.582 254.418C261.968 253.826 261.968 253.863 262.42 253.314C263.331 252.203 264.351 251.021 265.491 250.195C265.636 250.092 265.78 249.995 265.931 249.899C265.986 249.869 266.486 249.603 266.293 249.688C266.426 249.633 266.577 249.615 266.709 249.555C266.528 249.633 266.703 249.609 266.613 249.525C267.162 250.026 267.844 250.593 268.549 250.924C270.45 251.829 271.928 253.591 274.076 253.959C274.878 254.098 275.698 253.748 275.934 252.903C276.139 252.161 275.692 251.166 274.884 251.027Z" fill="black"/>
<path d="M267.759 269.687C267.909 271.858 268.169 274.06 269.11 276.045C269.955 277.831 271.529 279.122 273.423 279.659C274.714 280.027 276.096 280.069 277.429 279.973C278.214 279.918 278.974 279.321 278.937 278.464C278.901 277.698 278.274 276.896 277.429 276.956C276.862 276.998 276.295 277.017 275.728 276.986C275.493 276.974 275.263 276.944 275.028 276.926C274.932 276.92 275.33 276.98 275.022 276.92C274.895 276.896 274.763 276.872 274.636 276.848C274.437 276.805 274.244 276.751 274.051 276.691C273.948 276.661 273.852 276.624 273.755 276.588C273.442 276.48 273.972 276.697 273.755 276.594C273.58 276.51 273.405 276.425 273.236 276.323C273.164 276.281 273.098 276.238 273.031 276.196C272.995 276.172 272.965 276.148 272.929 276.13C272.718 275.991 272.965 276.124 273.007 276.196C272.929 276.069 272.73 275.961 272.621 275.858C272.488 275.732 272.374 275.581 272.247 275.448C272.12 275.315 272.44 275.719 272.338 275.563C272.313 275.532 272.289 275.496 272.265 275.466C272.217 275.4 272.175 275.333 272.126 275.267C272.012 275.098 271.909 274.917 271.819 274.736C271.783 274.664 271.74 274.585 271.704 274.513C271.535 274.157 271.722 274.507 271.698 274.519C271.71 274.513 271.505 274 271.481 273.94C271.342 273.524 271.234 273.101 271.137 272.673C271.083 272.432 271.04 272.184 270.998 271.937C270.974 271.798 270.956 271.665 270.932 271.527C270.878 271.171 270.956 271.72 270.92 271.454C270.853 270.863 270.793 270.266 270.751 269.669C270.697 268.884 270.099 268.124 269.243 268.16C268.495 268.209 267.698 268.842 267.759 269.687Z" fill="black"/>
<path d="M218.778 119.046C228.491 119.8 238.222 119.372 247.947 119.294C252.864 119.257 257.787 119.312 262.692 119.668C267.512 120.018 272.236 120.814 276.995 121.622C286.262 123.191 295.534 124.747 304.698 126.859C309.38 127.939 314.025 129.163 318.616 130.581C322.393 131.751 325.958 133.097 329.336 135.172C335.816 139.142 341.101 144.722 346.265 150.224C347.58 151.63 348.895 153.035 350.222 154.429C350.832 155.068 351.447 155.702 352.068 156.335C352.871 157.15 353.48 158.073 354.144 159.008C356.732 162.634 359.489 166.139 362.378 169.535C365.383 173.064 368.532 176.467 371.772 179.779C373.298 181.342 374.758 182.771 375.777 184.732C376.676 186.463 377.28 188.322 377.961 190.143C378.685 192.074 379.482 194.011 380.694 195.694C381.955 197.437 383.493 198.903 385.02 200.411C385.647 201.033 386.413 201.678 386.908 202.408C387.499 203.283 387.994 204.2 388.664 205.033C390.015 206.71 391.131 208.55 392.187 210.438C396.651 218.432 398.232 227.825 399.468 236.796C400.102 241.387 400.56 246.002 401.049 250.611C401.302 253 401.562 255.383 401.845 257.772C401.978 258.9 402.069 260.052 402.334 261.162C402.618 262.345 402.859 263.545 403.022 264.752C403.329 267.032 403.341 269.349 403.064 271.635C402.967 272.444 403.83 273.143 404.572 273.143C405.471 273.143 405.984 272.45 406.08 271.635C406.376 269.186 406.31 266.737 405.978 264.293C405.664 261.983 405.097 259.738 404.82 257.422C404.252 252.638 403.788 247.836 403.251 243.052C402.72 238.364 402.117 233.683 401.266 229.043C400.41 224.374 399.402 219.602 397.707 215.156C396.929 213.111 395.999 211.132 394.944 209.213C393.846 207.216 392.694 205.087 391.185 203.38C390.582 202.698 390.099 201.932 389.641 201.147C389.104 200.23 388.314 199.464 387.572 198.71C386.118 197.238 384.519 195.863 383.294 194.179C380.851 190.825 380.199 186.566 378.239 182.952C377.177 180.986 375.693 179.483 374.142 177.903C372.465 176.19 370.812 174.458 369.196 172.696C366.101 169.33 363.114 165.855 360.291 162.254C358.903 160.48 357.558 158.664 356.261 156.818C355.664 155.973 355.121 155.153 354.391 154.417C353.673 153.687 352.961 152.951 352.255 152.215C346.934 146.641 341.849 140.777 335.749 136.017C332.697 133.634 329.427 131.522 325.868 129.972C321.735 128.168 317.295 126.992 312.945 125.821C303.709 123.336 294.31 121.562 284.892 119.939C280.102 119.113 275.312 118.208 270.498 117.514C265.521 116.796 260.508 116.452 255.482 116.332C245.661 116.102 235.833 116.687 226.012 116.416C223.593 116.35 221.179 116.229 218.772 116.042C216.848 115.879 216.854 118.895 218.778 119.046Z" fill="black"/>
<path d="M170.793 222.425C170.805 223.022 170.805 223.614 170.768 224.211C170.732 224.748 170.732 224.856 170.594 225.369C170.557 225.514 170.509 225.659 170.455 225.798C170.382 226.009 170.569 225.574 170.467 225.761C170.443 225.81 170.419 225.864 170.388 225.912C170.316 226.039 170.238 226.16 170.165 226.28C169.96 226.606 170.25 226.214 170.039 226.443C168.886 227.74 167.728 229.104 167.082 230.732C166.34 232.603 166.304 234.787 166.395 236.765C166.485 238.69 166.702 240.705 167.3 242.545C168.494 246.207 171.197 248.813 174.72 250.261C178.062 251.636 181.821 251.914 185.398 251.932C188.861 251.944 192.318 251.654 195.775 251.522C200.734 251.329 205.282 249.784 209.451 247.118C211.774 245.628 213.97 243.95 216.28 242.442C218.693 240.862 221.131 239.317 223.459 237.616C224.527 236.838 225.583 236.035 226.59 235.185C226.85 234.968 226.355 235.354 226.572 235.197C226.669 235.124 226.765 235.052 226.862 234.98C227.085 234.817 227.308 234.66 227.532 234.503C228.708 233.683 229.903 232.886 231.091 232.084C234.083 230.045 237.07 227.945 239.76 225.514C241.938 223.547 244.454 221.02 244.773 217.949C244.84 217.34 244.78 216.712 244.605 216.127C244.056 214.269 241.142 215.059 241.697 216.929C241.733 217.056 241.751 217.189 241.793 217.309C241.721 217.056 241.787 217.116 241.787 217.346C241.787 217.46 241.787 217.575 241.781 217.695C241.781 217.762 241.769 217.828 241.763 217.895C241.769 217.798 241.829 217.611 241.769 217.798C241.691 218.057 241.63 218.323 241.546 218.576C241.443 218.902 241.618 218.456 241.498 218.697C241.425 218.842 241.359 218.986 241.28 219.125C240.581 220.416 239.899 221.158 238.801 222.256C236.382 224.675 233.758 226.57 230.964 228.512C228.786 230.027 226.494 231.414 224.419 233.073C220.202 236.446 215.556 239.154 211.158 242.273C207.376 244.958 203.599 247.371 198.96 248.192C197.102 248.517 195.208 248.517 193.325 248.62C191.678 248.71 190.031 248.813 188.378 248.873C184.91 249 181.429 248.988 178.171 248.21C176.53 247.817 175.275 247.371 173.906 246.502C172.705 245.748 171.698 244.735 170.962 243.45C170.201 242.129 169.815 240.548 169.604 239.003C169.345 237.139 169.242 234.974 169.532 233.218C169.604 232.802 169.695 232.385 169.827 231.981C169.851 231.915 170.026 231.481 169.918 231.71C170.02 231.493 170.141 231.281 170.268 231.076C170.732 230.292 171.052 229.864 171.583 229.254C172.512 228.193 173.314 227.179 173.58 225.755C173.785 224.657 173.815 223.541 173.791 222.431C173.779 220.483 170.762 220.477 170.793 222.425Z" fill="black"/>
<path d="M181.374 217.828C183.782 218.07 186.213 218.462 188.427 217.231C189.314 216.736 190.092 216.103 191.099 215.862C192.065 215.632 193.072 215.687 194.055 215.632C195.226 215.566 196.354 215.379 197.428 214.896C198.393 214.462 199.244 213.762 200.076 213.117C201.584 211.94 202.966 210.619 204.414 209.37C205.771 208.2 207.207 207.132 208.83 206.366C210.809 205.437 213.071 205.202 215.207 204.882C217.572 204.526 219.948 204.182 222.235 203.452C224.594 202.698 226.85 201.66 229.221 200.936C231.188 200.339 233.565 199.688 235.441 199.977C235.791 200.031 236.322 200.176 236.545 200.279C236.792 200.393 237.046 200.58 237.221 200.761C237.335 200.882 237.504 201.154 237.57 201.353C237.727 201.817 237.739 202.233 237.721 202.734C237.655 204.677 240.671 204.671 240.738 202.734C240.804 200.779 240.092 198.915 238.379 197.847C236.889 196.924 234.97 196.786 233.275 196.979C230.783 197.256 228.376 197.974 226.03 198.825C223.61 199.7 221.276 200.707 218.748 201.238C216.262 201.763 213.729 202.016 211.237 202.493C209.132 202.897 207.153 203.681 205.355 204.858C203.678 205.962 202.176 207.307 200.68 208.646C199.95 209.298 199.22 209.949 198.459 210.565C197.717 211.168 196.909 211.868 196.022 212.236C194.954 212.682 193.742 212.61 192.608 212.664C191.226 212.725 189.893 212.936 188.65 213.575C187.703 214.064 186.864 214.848 185.79 215.035C184.355 215.282 182.798 214.951 181.374 214.806C180.56 214.727 179.866 215.554 179.866 216.314C179.866 217.201 180.56 217.744 181.374 217.828Z" fill="black"/>
<path d="M167.855 228.73C168.005 228.313 168.162 227.909 168.331 227.499C168.283 227.62 168.229 227.74 168.18 227.861C168.705 226.618 169.333 225.424 170.069 224.295C170.497 223.632 170.225 222.6 169.526 222.232C168.778 221.834 167.921 222.063 167.462 222.775C166.419 224.386 165.592 226.129 164.947 227.933C164.681 228.675 165.248 229.616 166.002 229.791C166.841 229.972 167.565 229.526 167.855 228.73Z" fill="black"/>
<path d="M186.593 256.288C187.317 261.259 189.857 265.409 193.229 269.041C194.84 270.773 196.523 272.486 198.321 274.03C199.72 275.231 201.283 276.359 203.117 276.775C207.883 277.867 212.534 274.67 216.449 272.444C217.71 271.726 218.983 271.098 220.365 270.658C221.692 270.236 223.055 269.952 224.413 269.644C226.983 269.065 229.474 268.329 231.67 266.821C235.429 264.239 238.101 260.36 242.186 258.218C246.945 255.727 251.386 252.608 255.15 248.753C256.556 247.311 257.865 245.766 259.21 244.264C260.628 242.684 262.028 241.091 263.355 239.438C264.682 237.785 265.985 236.084 267.023 234.226C267.94 232.591 268.67 230.787 268.525 228.88C268.163 224.193 264.181 220.489 260.471 218.082C258.48 216.791 256.296 215.807 253.956 215.343C251.138 214.782 248.261 214.806 245.407 214.896C244.007 214.945 242.602 214.999 241.202 214.999C239.26 215.005 239.26 218.021 241.202 218.015C246.228 218.003 251.802 217.068 256.514 219.306C258.281 220.145 259.946 221.249 261.418 222.54C262.878 223.825 264.29 225.339 265.056 227.149C265.418 228.012 265.581 228.826 265.527 229.719C265.509 229.972 265.448 230.286 265.358 230.594C265.309 230.757 265.261 230.914 265.201 231.07C265.165 231.167 265.135 231.257 265.098 231.348C265.008 231.571 265.098 231.354 265.038 231.493C264.272 233.188 263.192 234.738 262.076 236.216C259.874 239.136 257.34 241.773 254.945 244.524C251.633 248.318 247.778 251.504 243.446 254.068C241.347 255.304 239.187 256.318 237.287 257.862C235.622 259.208 234.156 260.77 232.587 262.224C231.103 263.594 229.474 264.903 227.562 265.633C225.07 266.586 222.386 266.887 219.84 267.66C214.965 269.144 211.05 273.113 205.94 273.91C204.655 274.109 203.4 273.849 202.23 273.168C200.655 272.245 199.316 270.863 197.959 269.524C194.84 266.435 191.709 263.195 190.309 258.93C189.941 257.808 189.688 256.65 189.519 255.479C189.398 254.671 188.379 254.231 187.661 254.424C186.786 254.665 186.478 255.473 186.593 256.288Z" fill="black"/>
<path d="M203.28 279.906C203.829 276.836 202.634 274.042 201.06 271.466C200.324 270.26 198.14 270.67 198.249 272.227C198.423 274.682 198.538 277.155 198.966 279.587C199.371 281.873 200.185 284.051 201.283 286.096C201.923 287.285 202.677 288.401 203.358 289.565C203.992 290.657 204.583 291.767 205.235 292.847C206.562 295.043 208.197 297.064 210.453 298.343C220.335 303.953 232.177 300.358 240.931 294.337C243.109 292.835 245.184 291.176 247.127 289.384C248.086 288.497 249.009 287.58 250.059 286.796C251.151 285.987 252.297 285.239 253.419 284.479C255.736 282.911 258.064 281.215 259.591 278.814C260.984 276.618 261.497 274.006 262.915 271.81C265.636 267.599 270.052 264.824 272.857 260.668C274.003 258.966 274.848 257.024 275.801 255.208C276.899 253.12 277.973 251.009 278.878 248.825C279.638 246.985 280.38 244.964 280.356 242.949C280.332 240.741 279.547 238.509 278.154 236.802C275.638 233.731 271.355 233.031 267.62 232.814C266.685 232.76 265.75 232.735 264.809 232.717C262.866 232.681 262.866 235.698 264.809 235.734C268.206 235.794 271.837 235.812 274.624 237.64C275.837 238.437 276.706 239.722 277.098 241.308C277.303 242.141 277.394 242.985 277.285 243.836C277.315 243.601 277.237 244.095 277.225 244.156C277.182 244.379 277.128 244.602 277.074 244.825C276.953 245.302 276.808 245.778 276.645 246.243C275.342 250.056 273.195 253.519 271.415 257.12C269.322 261.349 265.418 264.088 262.378 267.569C260.658 269.542 259.416 271.653 258.468 274.091C258.058 275.152 257.654 276.208 257.051 277.179C256.369 278.277 255.434 279.182 254.445 280.003C252.526 281.596 250.324 282.826 248.333 284.328C246.312 285.855 244.575 287.695 242.62 289.299C235.296 295.32 225.203 300.201 215.605 297.263C213.301 296.557 211.111 295.513 209.5 293.685C207.98 291.954 206.99 289.8 205.832 287.827C204.661 285.831 203.37 283.936 202.616 281.734C201.959 279.822 201.687 277.873 201.518 275.882C201.416 274.664 201.343 273.439 201.253 272.22C200.318 272.474 199.377 272.727 198.442 272.981C199.534 274.772 200.746 276.914 200.36 279.098C200.215 279.9 200.577 280.721 201.416 280.956C202.158 281.161 203.141 280.709 203.28 279.906Z" fill="black"/>
<path d="M231.815 299.187C231.773 301.582 232.183 304.08 233.487 306.137C234.645 307.965 236.358 309.256 238.355 310.046C242.475 311.681 247.368 311.036 251.495 309.775C255.778 308.466 259.971 306.306 263.096 303.048C267.62 298.343 273.364 294.633 276.374 288.654C277.309 286.802 277.81 284.829 278.57 282.917C279.366 280.908 280.476 279.032 281.279 277.023C282.998 272.709 282.093 268.251 282.069 263.756C282.057 261.814 279.041 261.814 279.053 263.756C279.077 267.4 279.933 271.249 278.866 274.809C278.353 276.522 277.496 278.096 276.724 279.701C275.916 281.378 275.361 283.086 274.745 284.829C273.744 287.653 272.115 290.156 270.064 292.328C267.952 294.566 265.551 296.503 263.313 298.602C262.275 299.573 261.31 300.623 260.278 301.606C259.482 302.367 258.993 302.735 258.251 303.253C257.395 303.845 256.502 304.376 255.585 304.864C254.589 305.389 253.685 305.793 252.834 306.125C250.831 306.903 248.744 307.476 246.62 307.79C246.143 307.863 246.916 307.76 246.439 307.814C246.294 307.832 246.149 307.85 246.005 307.863C245.763 307.887 245.528 307.905 245.287 307.923C244.774 307.959 244.255 307.977 243.736 307.971C243.236 307.965 242.735 307.941 242.234 307.893C242.144 307.887 242.059 307.875 241.969 307.863C241.528 307.814 242.276 307.917 241.842 307.844C241.583 307.802 241.329 307.76 241.07 307.706C240.575 307.603 240.08 307.47 239.604 307.302C239.489 307.259 239.369 307.217 239.254 307.175C238.868 307.03 239.531 307.308 239.163 307.139C238.94 307.036 238.723 306.933 238.512 306.819C238.301 306.704 238.096 306.584 237.891 306.451C237.788 306.385 237.691 306.318 237.595 306.246C237.354 306.077 237.764 306.409 237.474 306.155C237.094 305.823 236.738 305.486 236.412 305.1C236.231 304.888 236.388 305.075 236.425 305.118C236.328 304.985 236.231 304.852 236.141 304.713C236.002 304.502 235.876 304.285 235.755 304.062C235.707 303.965 235.658 303.869 235.61 303.772C235.58 303.712 235.399 303.284 235.526 303.591C235.423 303.338 235.333 303.079 235.254 302.819C234.856 301.498 234.79 300.611 234.814 299.181C234.862 297.245 231.846 297.245 231.815 299.187Z" fill="black"/>
<path d="M273.201 293.685C274.486 298.795 280.133 299.278 284.531 299.061C286.588 298.958 288.627 298.771 290.684 298.723C293.26 298.662 295.806 297.812 298.129 296.756C300.548 295.658 302.931 294.138 304.566 292.014C306.279 289.788 306.315 287.134 306.11 284.437C306.002 283.043 305.827 281.656 305.736 280.256C305.628 278.664 305.706 277.059 305.676 275.46C305.597 271.708 304.994 268.124 303.89 264.535C303.263 262.483 302.539 260.456 301.803 258.435C301.103 256.505 300.488 254.52 299.51 252.71C297.863 249.646 295.293 247.208 293.489 244.24C292.705 242.955 290.714 243.504 290.678 245C290.461 254.176 296.892 261.404 298.792 270.061C299.209 271.955 302.116 271.153 301.7 269.258C299.872 260.933 293.489 253.79 293.695 245C292.759 245.254 291.818 245.507 290.883 245.76C292.397 248.246 294.424 250.339 296.023 252.758C297.839 255.503 298.756 258.785 299.836 261.868C300.97 265.108 302.092 268.438 302.448 271.865C302.762 274.911 302.515 277.97 302.78 281.016C302.991 283.423 303.576 286.343 303.003 288.576C302.792 289.402 302.297 290.114 301.634 290.808C300.856 291.616 299.975 292.274 299.022 292.859C296.988 294.114 294.72 295.031 292.373 295.495C290.793 295.809 288.693 295.737 286.871 295.875C285.689 295.966 284.506 296.05 283.324 296.074C282.256 296.098 280.875 296.05 280.078 295.911C278.914 295.712 278.214 295.495 277.352 294.904C277.134 294.759 277.599 295.133 277.273 294.844C277.171 294.753 277.068 294.657 276.971 294.56C276.905 294.494 276.845 294.427 276.784 294.355C276.501 294.029 276.917 294.578 276.676 294.21C276.32 293.655 276.272 293.528 276.109 292.877C275.638 291.001 272.724 291.797 273.201 293.685Z" fill="black"/>
<path d="M299.733 260.221C299.884 259.787 300.029 259.358 300.179 258.924C299.341 259.147 298.496 259.37 297.658 259.588C299.89 262.441 302.194 265.234 304.445 268.07C306.478 270.628 308.39 273.27 310.345 275.894C312.173 278.35 314.109 280.733 316.281 282.899C318.29 284.901 320.546 286.838 323.128 288.051C326.688 289.722 330.778 290.44 334.657 290.892C338.85 291.381 343.248 291.393 347.356 290.289C351.724 289.112 355.543 286.374 356.816 281.867C357.341 279.997 354.433 279.194 353.908 281.065C353.643 282.012 353.474 282.422 352.943 283.267C352.539 283.906 352.159 284.353 351.447 284.98C351.048 285.33 351.073 285.312 350.632 285.601C350.27 285.843 349.896 286.06 349.516 286.265C348.696 286.699 348.207 286.886 347.236 287.188C343.513 288.334 339.58 288.358 335.592 287.972C332.298 287.652 328.648 286.953 325.349 285.728C322.984 284.853 320.926 283.158 319.117 281.439C317.065 279.49 315.213 277.324 313.494 275.08C311.346 272.269 309.313 269.385 307.117 266.61C304.692 263.545 302.206 260.529 299.793 257.452C299.039 256.487 297.597 257.162 297.272 258.116C297.121 258.55 296.976 258.978 296.825 259.413C296.56 260.185 297.127 261.06 297.881 261.271C298.701 261.5 299.468 260.993 299.733 260.221Z" fill="black"/>
<path d="M355.357 284.95C356.931 284.926 357.83 285.125 359.375 285.444C360.943 285.77 362.5 286.162 364.068 286.482C367.199 287.122 370.632 287.64 373.666 286.319C377.473 284.66 378.541 280.564 379.265 276.842C379.814 274.018 380.152 271.153 380.333 268.287C380.496 265.633 380.586 262.966 380.206 260.33C379.548 255.787 377.141 251.721 375.06 247.709C372.665 243.088 369.715 238.792 366.668 234.588C360.714 226.365 354.295 218.287 350.826 208.622C350.066 206.499 349.33 204.327 348.763 202.143C348.407 200.749 348.123 199.344 347.731 197.956C346.929 195.127 345.511 191.531 342.133 191.205C341.342 191.127 340.534 191.29 339.798 191.573C338.875 191.935 338.404 192.858 338.899 193.787C339.967 195.808 341.173 197.745 342.265 199.748C343.345 201.721 344.226 203.742 344.932 205.877C346.289 210.01 347.417 214.245 350.355 217.587C350.892 218.196 351.936 218.136 352.491 217.587C353.1 216.978 353.028 216.067 352.491 215.451C349.77 212.35 348.908 208.182 347.61 204.381C346.126 200.043 343.635 196.285 341.505 192.261C341.204 192.997 340.902 193.739 340.606 194.475C340.938 194.348 341.276 194.228 341.632 194.179C341.348 194.216 341.734 194.198 341.831 194.192C341.891 194.186 341.958 194.198 342.018 194.198C341.813 194.186 341.873 194.155 342.042 194.21C342.175 194.252 342.308 194.282 342.44 194.33C342.193 194.234 342.392 194.312 342.507 194.385C342.549 194.415 342.881 194.644 342.748 194.541C342.633 194.451 342.941 194.728 343.007 194.795C343.11 194.903 343.213 195.012 343.303 195.133C343.128 194.915 343.369 195.241 343.418 195.314C343.611 195.609 343.78 195.917 343.936 196.237C344.111 196.587 344.148 196.677 344.232 196.906C344.365 197.268 344.498 197.636 344.612 198.004C345.04 199.362 345.342 200.761 345.674 202.143C346.108 203.983 346.7 205.787 347.297 207.578C348.811 212.157 350.814 216.513 353.299 220.646C355.863 224.905 358.807 228.917 361.745 232.922C364.695 236.94 367.652 240.964 370.222 245.236C371.507 247.365 372.629 249.573 373.769 251.781C374.71 253.603 375.693 255.425 376.375 257.368C377.968 261.886 377.558 266.863 377.045 271.551C376.761 274.139 376.315 276.733 375.633 279.249C375.217 280.769 374.614 281.994 373.497 282.953C373.316 283.11 373.576 282.923 373.304 283.098C373.19 283.17 373.075 283.249 372.954 283.321C372.816 283.399 372.677 283.478 372.532 283.55C372.454 283.592 372.369 283.629 372.285 283.665C372.424 283.604 372.381 283.623 372.261 283.665C371.953 283.773 371.645 283.864 371.332 283.942C371.169 283.978 371.012 284.009 370.849 284.039C370.511 284.099 370.885 284.051 370.541 284.081C369.842 284.135 369.148 284.147 368.454 284.105C368.092 284.081 367.73 284.045 367.368 284.009C367.29 284.003 367.211 283.991 367.133 283.978C367.356 284.009 367.091 283.972 367.06 283.966C366.849 283.936 366.632 283.9 366.421 283.864C363.35 283.351 360.364 282.422 357.275 282.054C356.648 281.976 356.014 281.933 355.381 281.939C353.42 281.957 353.414 284.974 355.357 284.95Z" fill="black"/>
<path d="M382.914 271.171C384.857 271.171 384.857 268.154 382.914 268.154C380.971 268.154 380.971 271.171 382.914 271.171Z" fill="black"/>
<path d="M382.155 270.966C386.51 273.131 390.528 275.991 395.131 277.656C397.044 278.344 399.234 278.844 401.242 278.283C403.438 277.674 404.808 275.834 405.459 273.729C405.912 272.269 406.051 270.694 406.081 269.174C406.123 266.936 406.075 264.685 406.063 262.447C406.051 260.118 406.165 257.766 406.014 255.449C405.888 253.531 405.526 251.642 405.104 249.772C404.651 247.793 404.144 245.821 403.987 243.794C403.806 241.525 403.849 239.245 403.505 236.989C403.167 234.762 402.419 232.597 401.791 230.443C401.158 228.253 400.464 226.057 399.957 223.831C399.487 221.774 399.258 219.668 398.841 217.599C398.443 215.626 397.9 213.635 396.573 212.079C395.511 210.836 394.069 209.967 392.736 209.05C392.109 208.622 391.674 208.32 391.143 207.784C390.643 207.283 390.42 206.915 390.275 206.281C389.846 204.387 386.939 205.189 387.367 207.084C388.037 210.034 390.981 211.331 393.164 213.008C394.13 213.75 394.836 214.57 395.252 215.783C395.837 217.496 396.115 219.306 396.404 221.086C397.074 225.231 398.298 229.206 399.457 233.236C400.042 235.263 400.597 237.236 400.742 239.353C400.893 241.543 400.874 243.727 401.212 245.899C401.785 249.615 403.028 253.151 403.052 256.945C403.064 259.183 403.04 261.416 403.058 263.654C403.07 265.777 403.155 267.919 403.034 270.036C402.968 271.249 402.811 272.419 402.316 273.608C402.431 273.33 402.178 273.879 402.135 273.952C402.027 274.145 401.906 274.326 401.779 274.507C401.647 274.694 402.021 274.253 401.767 274.513C401.689 274.591 401.623 274.676 401.544 274.754C401.466 274.827 401.387 274.899 401.309 274.971C401.049 275.201 401.574 274.809 401.285 274.989C401.11 275.098 400.935 275.195 400.754 275.291C400.458 275.448 400.995 275.213 400.784 275.279C400.706 275.303 400.621 275.333 400.543 275.364C400.344 275.424 400.138 275.466 399.933 275.502C400.374 275.418 399.716 275.514 399.583 275.514C399.378 275.52 399.167 275.514 398.962 275.502C398.853 275.496 398.202 275.412 398.6 275.472C398.099 275.394 397.599 275.279 397.11 275.14C394.721 274.459 392.682 273.349 390.371 272.07C388.145 270.833 385.961 269.506 383.681 268.371C381.943 267.497 380.417 270.097 382.155 270.966Z" fill="black"/>
<path d="M265.213 116.645C264.573 116.513 264.079 116.271 263.632 115.867C263.083 115.372 262.709 114.86 262.329 114.22C261.551 112.917 261.05 111.59 260.477 110.22C259.108 106.938 256.785 103.807 256.272 100.224C256.067 98.7639 256.441 97.5754 257.141 96.2784C257.973 94.74 259.035 93.3343 260.187 92.0252C262.371 89.5397 264.923 86.9938 268.217 86.1371C272.042 85.1357 275.644 86.7344 278.636 89.0329C281.888 91.5305 284.645 94.6374 287.239 97.7866C290.074 101.219 292.753 104.791 295.799 108.042C298.599 111.029 301.681 113.78 305.476 115.415C307.135 116.132 308.848 116.675 310.586 117.158C312.432 117.671 314.248 118.009 315.853 119.101C317.409 120.162 318.785 121.345 320.546 122.069C322.048 122.684 323.653 123.07 325.101 123.812C325.783 124.162 326.253 124.482 326.718 125.067C327.224 125.707 328.323 125.598 328.853 125.067C329.481 124.44 329.36 123.571 328.853 122.932C327.713 121.502 325.867 120.79 324.196 120.187C322.501 119.577 320.993 119.107 319.521 118.063C317.801 116.838 316.251 115.571 314.175 114.998C312.293 114.479 310.399 114.015 308.553 113.382C304.638 112.042 301.549 109.629 298.689 106.685C295.419 103.325 292.602 99.5723 289.628 95.9526C286.829 92.538 283.866 89.2622 280.355 86.5715C276.88 83.905 272.844 82.2761 268.404 83.0121C264.543 83.6516 261.448 86.2457 258.848 89.0088C256.387 91.6331 253.569 94.9692 253.226 98.6975C252.858 102.649 255.349 106.45 257.014 109.846C257.708 111.258 258.215 112.73 258.957 114.292C259.717 115.897 260.694 117.442 262.136 118.515C262.806 119.016 263.584 119.372 264.404 119.547C266.305 119.957 267.119 117.049 265.213 116.645Z" fill="black"/>
<path d="M288.433 97.9555C291.401 97.9555 294.376 97.9555 297.344 97.9555C300.282 97.9555 303.238 97.8589 306.17 98.0098C308.764 98.1485 311.322 98.5588 313.886 98.969C316.54 99.3913 319.183 99.6869 321.855 99.9342C325.626 100.278 329.336 101.557 331.96 104.368C333.3 105.804 334.241 107.56 335.001 109.364C335.345 110.19 335.646 111.041 335.864 111.903C336.069 112.742 336.117 112.947 336.111 113.756C336.111 113.955 336.099 114.148 336.081 114.341C336.111 114.021 336.063 114.437 336.039 114.558C336.002 114.715 335.954 114.872 335.912 115.028C335.791 115.421 335.972 114.998 335.809 115.276C335.731 115.415 335.658 115.559 335.574 115.692C335.532 115.758 335.483 115.825 335.435 115.891C335.309 116.072 335.671 115.638 335.405 115.927C335.17 116.187 334.928 116.428 334.651 116.645C334.862 116.476 334.452 116.778 334.386 116.82C334.198 116.941 333.999 117.055 333.8 117.164C333.378 117.393 333.082 117.526 332.714 117.665C331.628 118.075 330.5 118.365 329.366 118.6C328.57 118.769 328.105 119.704 328.31 120.458C328.54 121.285 329.366 121.677 330.169 121.514C333.583 120.796 337.728 119.432 338.85 115.71C339.332 114.111 339.121 112.362 338.687 110.775C338.12 108.7 337.197 106.601 336.051 104.779C333.656 100.966 329.873 98.4803 325.517 97.4728C322.989 96.8877 320.389 96.8575 317.825 96.5257C315.026 96.1577 312.245 95.6207 309.44 95.2769C306.013 94.8606 302.574 94.927 299.123 94.927C295.558 94.927 291.993 94.927 288.427 94.927C286.491 94.939 286.491 97.9555 288.433 97.9555Z" fill="black"/>
<path d="M325.831 125.514C331.339 125.954 336.95 125.803 342.337 124.506C348.008 123.143 352.967 120.12 357.999 117.279C363.096 114.401 368.321 111.789 373.316 108.736C375.765 107.24 378.185 105.69 380.616 104.157C383.119 102.577 385.75 101.141 388.199 99.4878C390.329 98.052 392.066 96.2059 393.605 94.1668C395.245 91.995 396.434 89.5517 397.87 87.2532C400.79 82.5777 404.15 78.2039 407.402 73.7637C409.055 71.5074 410.587 69.2089 412.536 67.1939C414.388 65.2755 416.391 63.4656 417.947 61.2817C418.719 60.1958 419.359 59.0194 420.143 57.9335C420.891 56.8898 421.687 55.8884 422.508 54.899C424.191 52.8659 425.959 50.8992 427.6 48.836C429.259 46.7486 430.809 44.613 432.637 42.6704C434.423 40.77 436.341 39.0024 438.326 37.3192C440.341 35.6059 442.422 33.977 444.498 32.3482C446.663 30.6529 448.835 29.006 450.784 27.0574C451.755 26.0861 452.72 25.1208 453.692 24.1556C455.067 22.7801 452.938 20.6505 451.556 22.0199C449.614 23.9625 447.737 25.9594 445.584 27.6727C443.502 29.3318 441.397 30.9486 439.321 32.6136C435.292 35.8352 431.388 39.2377 428.125 43.2495C426.423 45.349 424.831 47.5208 423.075 49.578C421.368 51.5809 419.642 53.5718 418.068 55.6833C417.277 56.745 416.529 57.837 415.842 58.9651C415.166 60.0752 414.321 61.0404 413.428 61.9815C411.637 63.8759 409.694 65.6254 408.089 67.6947C406.322 69.9811 404.693 72.3822 402.974 74.7109C401.357 76.9008 399.734 79.0907 398.177 81.3289C396.639 83.543 395.161 85.7993 393.816 88.134C393.152 89.2862 392.555 90.4626 391.789 91.5546C391.101 92.5319 390.371 93.473 389.556 94.3478C388.742 95.2226 387.855 96.043 386.878 96.7308C385.708 97.5573 384.41 98.233 383.192 98.981C380.749 100.477 378.329 102.022 375.904 103.554C373.515 105.062 371.114 106.558 368.677 107.982C366.113 109.478 363.476 110.817 360.864 112.229C358.343 113.587 355.857 115.022 353.359 116.422C350.85 117.822 348.334 119.324 345.637 120.337C340.57 122.244 335.146 122.829 329.759 122.702C328.45 122.672 327.135 122.594 325.831 122.491C325.017 122.425 324.323 123.233 324.323 123.999C324.323 124.874 325.017 125.447 325.831 125.514Z" fill="black"/>
<path d="M381.406 96.4472C381.358 96.8816 381.31 97.3099 381.262 97.7443C381.093 99.2163 383.457 99.8256 384.073 98.5045C385.044 96.4171 386.305 94.9451 387.916 93.3283C389.502 91.7296 391.222 90.2696 392.814 88.683C392.103 87.9711 391.391 87.2592 390.679 86.5473C389.701 87.5247 388.724 88.502 387.753 89.4733C387.18 90.0464 387.18 91.0298 387.753 91.6089C388.332 92.1881 389.309 92.1881 389.889 91.6089C390.866 90.6316 391.843 89.6543 392.814 88.683C393.388 88.1098 393.388 87.1265 392.814 86.5473C392.235 85.9682 391.258 85.9682 390.679 86.5473C387.409 89.799 383.451 92.6888 381.461 96.9842C382.396 97.2375 383.337 97.4909 384.272 97.7443C384.32 97.3099 384.368 96.8816 384.417 96.4472C384.507 95.6388 383.657 94.939 382.908 94.939C382.022 94.939 381.497 95.6328 381.406 96.4472Z" fill="black"/>
<path d="M387.252 93.9677C389.237 93.6299 391.149 92.8094 392.844 91.7416C393.387 91.3977 393.749 90.6859 393.538 90.0403C393.345 89.4431 392.76 88.876 392.084 88.9303C391.65 88.9665 391.222 89.0027 390.787 89.0389C390.383 89.0751 390.015 89.1837 389.719 89.4793C389.46 89.7387 389.261 90.1731 389.279 90.5471C389.315 91.3072 389.943 92.1277 390.787 92.0553C391.222 92.0191 391.65 91.9829 392.084 91.9467C391.831 91.0116 391.578 90.0705 391.324 89.1354C390.932 89.3828 390.528 89.618 390.118 89.8292C389.894 89.9438 389.671 90.0524 389.448 90.155C389.364 90.1912 389.279 90.2334 389.195 90.2696C389.044 90.336 389.08 90.3179 389.297 90.2274C389.237 90.2515 389.183 90.2756 389.122 90.2998C388.259 90.6436 387.367 90.903 386.45 91.0599C386.1 91.1202 385.72 91.4581 385.551 91.7537C385.364 92.0795 385.279 92.5561 385.4 92.918C385.671 93.7566 386.419 94.1065 387.252 93.9677Z" fill="black"/>
<path d="M399.728 225.46C408.765 216.785 419.787 210.583 431.02 205.22C434.538 203.542 438.097 201.938 441.656 200.351C442.398 200.019 442.573 198.933 442.199 198.288C441.753 197.522 440.884 197.413 440.136 197.745C428.263 203.03 416.343 208.55 405.876 216.35C402.98 218.51 400.199 220.821 397.592 223.324C396.193 224.67 398.328 226.805 399.728 225.46Z" fill="black"/>
<path d="M159.427 75.8631C167.505 85.5097 177.139 93.7506 187.697 100.574C192.945 103.964 198.411 107.005 204.028 109.744C209.874 112.597 215.906 114.986 221.909 117.484C229.173 120.5 236.503 123.655 244.273 125.103C246.01 125.429 246.801 123.378 245.437 122.346C242.789 120.349 239.477 120.977 236.503 119.957C234.934 119.42 233.492 118.582 231.978 117.918C230.373 117.218 228.684 116.754 227.025 116.205C220.793 114.136 214.772 111.493 208.987 108.392C202.942 105.153 197.12 101.473 191.317 97.8227C185.501 94.1668 179.758 90.3842 174.195 86.3422C167.975 81.8236 162.009 76.9672 156.447 71.6522C156.091 72.5089 155.735 73.3716 155.379 74.2282C155.777 74.2644 156.169 74.2946 156.567 74.3308C157.382 74.4032 158.076 73.5888 158.076 72.8226C158.076 71.9478 157.382 71.3868 156.567 71.3144C156.169 71.2782 155.777 71.248 155.379 71.2118C154.058 71.0972 153.412 72.9251 154.311 73.7878C164.344 83.368 175.691 91.446 187.365 98.8905C198.846 106.214 210.453 113.442 223.315 118.099C225.131 118.757 226.971 119.366 228.817 119.939C230.584 120.488 232.183 121.375 233.866 122.123C235.634 122.907 237.365 123.36 239.29 123.565C240.973 123.746 242.523 123.903 243.923 124.952C244.309 124.035 244.695 123.112 245.087 122.195C238.222 120.916 231.694 118.286 225.263 115.632C219.339 113.176 213.361 110.842 207.563 108.103C196.45 102.854 185.821 96.4412 176.385 88.5321C171.028 84.0437 166.063 79.0907 161.575 73.7335C161.05 73.1061 159.982 73.1906 159.439 73.7335C158.805 74.3489 158.902 75.2357 159.427 75.8631Z" fill="black"/>
<path d="M133.033 198.855C137.178 202.499 142.523 203.772 147.228 206.45C149.666 207.832 151.548 209.835 153.738 211.548C156.055 213.364 158.709 214.377 161.357 215.602C164.356 216.99 167.33 218.582 170.738 217.973C171.541 217.828 171.993 216.851 171.794 216.115C171.565 215.27 170.745 214.914 169.936 215.059C167.439 215.506 164.935 213.937 162.763 212.942C160.338 211.826 157.786 210.921 155.668 209.25C153.551 207.584 151.705 205.618 149.382 204.212C147.204 202.885 144.833 201.938 142.499 200.93C139.911 199.814 137.304 198.595 135.169 196.719C134.559 196.182 133.636 196.116 133.033 196.719C132.484 197.274 132.418 198.318 133.033 198.855Z" fill="black"/>
<path d="M176.24 215.011C171.794 215.584 167.432 216.917 162.908 216.501C163.161 216.567 163.414 216.64 163.668 216.706C153.261 211.482 144.127 204.158 135.144 196.84C134.511 196.327 133.63 196.225 133.009 196.84C132.478 197.371 132.375 198.457 133.009 198.976C138.082 203.108 143.18 207.222 148.519 210.999C151.15 212.863 153.846 214.643 156.621 216.29C157.955 217.08 159.312 217.84 160.687 218.564C161.448 218.962 162.19 219.445 163.046 219.53C163.891 219.614 164.742 219.626 165.586 219.596C169.194 219.475 172.675 218.486 176.24 218.027C177.049 217.925 177.748 217.406 177.748 216.519C177.748 215.783 177.055 214.902 176.24 215.011Z" fill="black"/>
<path d="M238.711 218.088C238.186 215.928 236.587 214.347 234.892 213.014C233.233 211.711 231.67 210.36 230.114 208.936C228.648 207.596 227.085 206.215 225.167 205.588C223.158 204.93 221.107 205.521 219.466 206.77C216.371 209.123 214.477 213.02 213.113 216.567C212.552 218.033 211.961 219.735 212.118 221.333C212.305 223.252 213.306 224.947 214.616 226.322C216.082 227.861 217.909 229.043 219.701 230.159C221.318 231.167 223.116 232.168 224.377 233.333C225.8 234.648 227.942 232.518 226.512 231.197C224.087 228.959 220.98 227.632 218.374 225.635C217.204 224.736 216.136 223.722 215.496 222.419C215.406 222.238 215.303 221.949 215.213 221.617C215.189 221.532 215.098 221.032 215.134 221.333C215.116 221.195 215.116 221.056 215.116 220.917C215.116 220.766 215.128 220.609 215.14 220.459C215.165 220.181 215.11 220.579 215.165 220.29C215.231 219.922 215.315 219.554 215.418 219.192C215.858 217.593 216.534 216.067 217.294 214.595C217.68 213.847 218.09 213.111 218.531 212.393C218.718 212.091 218.911 211.789 219.116 211.494C219.2 211.367 219.285 211.246 219.375 211.126C219.43 211.047 219.484 210.975 219.544 210.896C219.46 211.011 219.466 210.993 219.55 210.89C220.154 210.16 220.829 209.443 221.632 208.93C222.283 208.52 222.868 208.314 223.502 208.326C224.033 208.339 224.618 208.562 225.185 208.881C225.885 209.28 226.518 209.774 227.128 210.305C228.793 211.747 230.337 213.285 232.087 214.631C233.565 215.765 235.35 216.996 235.815 218.902C236.261 220.772 239.175 219.976 238.711 218.088Z" fill="black"/>
<path d="M258.909 236.663C258.824 236.657 258.33 236.584 258.686 236.651C258.523 236.621 258.36 236.584 258.197 236.542C258.052 236.5 257.914 236.452 257.775 236.403C257.733 236.391 257.485 236.283 257.654 236.361C257.835 236.44 257.473 236.271 257.473 236.271C257.171 236.114 256.876 235.945 256.586 235.764C256.448 235.673 256.309 235.583 256.176 235.486C256.098 235.432 256.019 235.372 255.941 235.318C255.567 235.046 256.049 235.408 255.838 235.245C254.571 234.244 253.443 233.091 252.255 231.999C250.011 229.936 247.06 227.632 243.815 228.76C240.418 229.942 238.21 233.55 237.613 236.952C237.016 240.331 237.535 244.005 239.369 246.943C240.328 248.487 241.673 249.863 243.314 250.671C245.263 251.63 247.344 251.805 249.468 251.437C250.27 251.299 250.722 250.309 250.523 249.579C250.288 248.729 249.474 248.391 248.665 248.523C248.339 248.578 248.146 248.602 247.718 248.614C247.326 248.626 246.928 248.614 246.536 248.566C246.276 248.536 246.735 248.602 246.487 248.554C246.415 248.542 246.336 248.529 246.264 248.511C246.095 248.475 245.926 248.439 245.757 248.391C245.594 248.342 245.432 248.294 245.269 248.24C245.178 248.21 245.088 248.174 244.997 248.137C245.142 248.198 245.058 248.161 244.961 248.119C244.659 247.974 244.37 247.818 244.092 247.637C243.954 247.546 243.815 247.456 243.682 247.353C243.543 247.251 243.682 247.353 243.706 247.371C243.616 247.299 243.525 247.22 243.435 247.142C242.892 246.659 242.488 246.189 242.204 245.779C241.335 244.512 240.949 243.516 240.623 242.014C240.454 241.224 240.412 240.91 240.382 240.041C240.37 239.679 240.37 239.317 240.388 238.955C240.394 238.774 240.406 238.593 240.424 238.412C240.43 238.334 240.497 237.809 240.46 238.044C240.569 237.314 240.75 236.59 240.997 235.891C241.148 235.462 241.136 235.499 241.311 235.131C241.474 234.793 241.661 234.461 241.866 234.141C242.228 233.574 242.62 233.103 243.254 232.536C243.537 232.277 243.604 232.223 243.941 232.012C244.11 231.903 244.285 231.812 244.46 231.722C244.472 231.716 244.683 231.619 244.539 231.686C244.382 231.752 244.744 231.619 244.738 231.619C244.864 231.583 244.991 231.547 245.118 231.517C245.202 231.499 245.287 231.481 245.365 231.469C245.305 231.481 245.058 231.487 245.335 231.481C245.456 231.481 245.582 231.469 245.703 231.475C245.824 231.481 246.24 231.547 245.908 231.481C246.192 231.535 246.469 231.619 246.747 231.704C246.982 231.782 246.608 231.619 246.916 231.77C247.091 231.861 247.272 231.945 247.441 232.042C247.7 232.186 247.947 232.349 248.195 232.518C248.581 232.784 248.611 232.808 248.864 233.019C249.431 233.484 249.974 233.978 250.511 234.479C252.882 236.693 255.428 239.504 258.897 239.667C260.852 239.77 260.846 236.753 258.909 236.663Z" fill="black"/>
<path d="M272.175 254.315C272.579 252.819 272.525 251.196 271.717 249.839C270.956 248.572 269.72 247.745 268.362 247.232C265.744 246.249 262.372 246.545 260.019 248.083C257.419 249.778 256.846 252.559 256.616 255.461C256.351 258.797 256.586 262.242 257.292 265.512C257.901 268.323 259.192 272.395 262.45 273.083C263.246 273.252 264.079 272.848 264.308 272.027C264.513 271.279 264.055 270.338 263.253 270.169C263.156 270.151 263.059 270.127 262.969 270.097C262.909 270.079 262.848 270.055 262.782 270.031C262.782 270.031 263.059 270.163 262.915 270.085C262.782 270.006 262.299 269.663 262.583 269.91C262.402 269.753 262.239 269.596 262.076 269.421C262.04 269.379 261.829 269.114 261.943 269.264C262.04 269.397 261.805 269.053 261.75 268.975C261.057 267.883 260.815 267.129 260.459 265.808C259.699 262.984 259.476 260.233 259.542 257.241C259.554 256.577 259.591 255.908 259.645 255.25C259.669 254.948 259.705 254.641 259.741 254.339C259.705 254.605 259.741 254.321 259.759 254.212C259.784 254.068 259.808 253.923 259.832 253.778C259.922 253.289 260.043 252.819 260.188 252.342C260.218 252.234 260.315 252.035 260.212 252.252C260.266 252.137 260.321 252.022 260.387 251.908C260.447 251.799 260.52 251.691 260.586 251.588C260.731 251.353 260.61 251.54 260.574 251.588C260.628 251.522 260.676 251.455 260.737 251.395C260.906 251.208 261.087 251.033 261.28 250.87C261.461 250.707 261.147 250.943 261.431 250.762C261.557 250.683 261.678 250.599 261.811 250.52C261.925 250.454 262.034 250.394 262.155 250.333C262.203 250.309 262.583 250.134 262.45 250.195C262.311 250.249 262.643 250.128 262.704 250.104C262.848 250.056 262.999 250.008 263.15 249.965C263.433 249.887 263.717 249.833 264.001 249.772C264.067 249.76 264.133 249.748 264.2 249.742C264.176 249.748 263.952 249.772 264.133 249.754C264.314 249.736 264.489 249.718 264.67 249.712C264.942 249.7 265.207 249.7 265.479 249.706C265.635 249.712 265.792 249.724 265.943 249.736C266.01 249.742 266.076 249.748 266.142 249.76C266.378 249.79 265.901 249.718 266.136 249.76C266.456 249.82 266.77 249.887 267.083 249.977C267.222 250.02 267.361 250.068 267.506 250.116C267.837 250.225 267.409 250.044 267.717 250.207C267.964 250.339 268.205 250.478 268.441 250.629C268.724 250.804 268.362 250.514 268.592 250.75C268.682 250.846 268.785 250.937 268.875 251.027C268.917 251.069 268.948 251.112 268.99 251.154C269.129 251.311 268.845 250.943 268.96 251.118C269.044 251.244 269.116 251.377 269.195 251.504C269.376 251.775 269.183 251.389 269.255 251.612C269.303 251.763 269.346 251.908 269.388 252.059C269.4 252.119 269.412 252.179 269.424 252.234C269.466 252.451 269.406 251.974 269.412 252.197C269.418 252.348 269.424 252.493 269.424 252.644C269.424 252.74 269.358 253.211 269.406 252.921C269.37 253.114 269.328 253.307 269.273 253.501C268.761 255.389 271.668 256.191 272.175 254.315Z" fill="black"/>
<path d="M442.181 197.902C438.538 190.873 434.61 183.857 429.205 178.005C426.641 175.23 423.395 172.908 421.453 169.614C419.54 166.374 418.846 162.561 417.423 159.11C414.388 151.75 409.634 145.428 405.435 138.725C403.227 135.196 401.568 131.408 399.722 127.691C397.979 124.168 395.698 120.995 393.333 117.876C390.619 114.298 388.218 110.528 386.408 106.413C384.688 102.492 383.005 98.5527 380.043 95.3854C378.716 93.9617 376.586 96.0973 377.907 97.521C380.435 100.23 381.925 103.656 383.391 107.011C384.984 110.667 386.884 114.087 389.201 117.339C391.475 120.536 393.961 123.559 395.916 126.979C397.973 130.575 399.487 134.448 401.52 138.062C403.463 141.513 405.785 144.746 407.945 148.064C410.044 151.298 412.059 154.598 413.7 158.097C415.335 161.584 416.21 165.324 417.712 168.854C419.281 172.528 422.008 175.182 424.843 177.903C431.202 184.002 435.551 191.682 439.575 199.434C440.474 201.153 443.08 199.627 442.181 197.902Z" fill="black"/>
<path d="M444.13 201.745C443.702 200.888 443.274 200.031 442.833 199.175C442.664 198.849 442.278 198.577 441.934 198.481C441.572 198.384 441.09 198.427 440.77 198.632C440.45 198.837 440.167 199.151 440.076 199.531C439.986 199.941 440.034 200.315 440.227 200.695C440.661 201.552 441.096 202.408 441.524 203.265C441.687 203.591 442.085 203.862 442.423 203.959C442.785 204.055 443.268 204.013 443.587 203.808C443.907 203.603 444.191 203.289 444.281 202.909C444.299 202.776 444.317 202.644 444.335 202.511C444.335 202.233 444.269 201.98 444.13 201.745Z" fill="black"/>
<path d="M446.217 210.547C448.352 214.534 452.401 220.308 457.728 218.492C459.278 217.961 460.533 216.887 461.872 215.976C463.326 214.981 464.81 214.022 466.312 213.099C469.268 211.277 472.303 209.587 475.392 207.995C481.515 204.827 487.819 202.04 494.118 199.241C497.303 197.823 500.482 196.406 503.644 194.934C505.158 194.228 506.642 193.419 508.198 192.816C509.749 192.219 511.348 191.73 512.958 191.32C516.578 190.397 520.312 189.957 523.926 189.015C524.728 188.804 525.452 188.334 526.219 188.014C526.635 187.839 527.069 187.706 527.485 187.543C527.98 187.35 528.402 187.025 528.837 186.729C529.748 186.12 530.659 185.516 531.57 184.907C531.733 184.798 531.907 184.69 532.064 184.575C532.324 184.292 532.42 184.219 532.36 184.364C532.354 184.37 532.354 184.376 532.348 184.382C532.517 184.322 532.758 184.334 533.036 184.37C533.036 183.363 533.036 182.361 533.036 181.354C531.745 181.366 530.417 181.348 529.138 181.565C527.811 181.788 527.039 183.381 528.246 184.34C528.819 184.792 529.663 184.756 530.363 184.732C531.395 184.696 532.432 184.551 533.44 184.322C535.123 183.936 534.719 181.372 533.042 181.36C526.134 181.305 519.649 183.586 513.254 185.945C506.823 188.322 500.513 191.03 494.335 194.011C491.3 195.477 488.423 197.13 485.575 198.933C482.818 200.677 480.097 202.487 477.316 204.194C475.892 205.069 474.457 205.919 472.991 206.722C471.621 207.476 470.185 208.393 468.671 208.803C465.474 209.678 462.017 209.575 458.922 210.848C457.516 211.427 456.237 212.242 454.88 212.918C453.806 213.454 452.34 214.022 451.146 213.642C448.594 212.821 447.55 209.672 446.85 207.385C446.283 205.533 443.369 206.324 443.942 208.188C444.733 210.77 445.795 213.515 447.972 215.246C449.173 216.199 450.548 216.797 452.099 216.748C453.559 216.7 454.916 216.248 456.219 215.614C457.432 215.029 458.56 214.281 459.791 213.732C461.287 213.074 462.982 212.833 464.587 212.586C466.264 212.326 467.965 212.133 469.6 211.669C471.235 211.21 472.786 210.257 474.27 209.449C480.224 206.203 485.72 202.191 491.584 198.789C494.618 197.027 497.888 195.609 501.08 194.167C504.199 192.756 507.354 191.429 510.545 190.18C514.195 188.756 517.887 187.387 521.628 186.222C525.344 185.064 529.138 184.34 533.036 184.37C532.903 183.381 532.77 182.397 532.637 181.408C532.438 181.456 532.239 181.498 532.04 181.535C531.92 181.559 531.793 181.577 531.672 181.595C531.642 181.601 531.352 181.643 531.515 181.619C531.606 181.607 531.202 181.655 531.099 181.661C530.912 181.679 530.725 181.692 530.538 181.704C530.267 181.716 530.001 181.728 529.73 181.716C529.633 181.71 529.506 181.679 529.41 181.698C529.289 181.722 529.748 181.752 529.663 181.728C529.241 181.619 530.279 182.011 530.448 182.367C530.496 182.753 530.55 183.139 530.598 183.532C530.598 183.526 530.598 183.526 530.598 183.519C530.472 183.743 530.339 183.966 530.212 184.183C530.122 184.28 529.338 184.678 529.862 184.479C529.476 184.63 529.669 184.497 529.832 184.485C529.983 184.473 530.134 184.461 530.291 184.449C531.202 184.382 532.119 184.376 533.036 184.364C533.85 184.358 534.544 183.676 534.544 182.856C534.544 181.951 533.85 181.456 533.036 181.348C531.449 181.143 530.285 182.138 529.048 182.958C528.3 183.453 527.558 183.954 526.81 184.449C526.11 184.913 525.265 185.142 524.493 185.486C523.944 185.734 523.425 186.047 522.834 186.162C521.935 186.337 521.042 186.548 520.143 186.729C518.563 187.043 516.97 187.338 515.39 187.664C512.156 188.334 508.88 189.13 505.876 190.536C502.781 191.984 499.698 193.444 496.585 194.843C484.284 200.363 471.772 205.6 460.569 213.201C459.272 214.082 457.939 215.391 456.364 215.729C455.393 215.934 454.422 215.602 453.486 214.987C451.417 213.623 449.969 211.186 448.805 209.014C447.906 207.313 445.3 208.833 446.217 210.547Z" fill="black"/>
<path d="M381.847 105.388C384.344 107.922 387.144 110.16 389.46 112.869C391.747 115.541 393.436 118.69 395.077 121.785C396.826 125.091 398.461 128.464 400.163 131.794C401.876 135.154 403.734 138.418 405.652 141.663C413.435 154.839 420.771 168.268 428.3 181.589C432.481 188.979 436.866 196.249 441.494 203.361C442.549 204.984 445.162 203.47 444.1 201.841C435.726 188.985 428.372 175.544 420.873 162.175C417.115 155.479 413.332 148.8 409.453 142.176C407.535 138.906 405.58 135.673 403.818 132.313C402.081 129.001 400.452 125.634 398.745 122.304C396.881 118.672 394.968 115.016 392.447 111.789C389.973 108.609 386.788 106.112 383.976 103.258C382.619 101.871 380.483 104.006 381.847 105.388Z" fill="black"/>
<path d="M440.51 202.336C439.973 204.465 440.733 206.414 441.928 208.164C442.459 208.942 443.038 209.69 443.533 210.498C443.647 210.691 443.762 210.884 443.864 211.084C443.913 211.174 443.961 211.264 444.003 211.355C444.064 211.476 444.148 211.681 444.052 211.439C444.142 211.669 444.22 211.898 444.287 212.133C444.317 212.254 444.347 212.369 444.371 212.489C444.389 212.574 444.438 212.942 444.395 212.58C444.486 213.358 445.023 214.13 445.904 214.088C446.646 214.058 447.508 213.418 447.412 212.58C447.164 210.468 446.085 208.833 444.89 207.138C444.389 206.432 443.895 205.708 443.539 204.912C443.696 205.262 443.551 204.912 443.527 204.852C443.49 204.743 443.454 204.64 443.43 204.532C443.406 204.441 443.388 204.351 443.364 204.26C443.315 204.067 443.34 204.085 443.358 204.272C443.34 204.043 443.328 203.814 443.34 203.585C443.346 203.488 443.424 203.15 443.34 203.506C443.37 203.386 443.388 203.259 443.424 203.138C443.617 202.372 443.177 201.467 442.368 201.28C441.584 201.105 440.715 201.521 440.51 202.336Z" fill="black"/>
<path d="M135.115 196.683C146.1 185.878 157.702 175.61 167.33 163.527C169.767 160.468 172.096 157.319 174.232 154.043C176.446 150.634 178.316 147.057 180.12 143.419C181.845 139.938 183.589 136.487 185.875 133.326C188.041 130.334 190.532 127.601 192.964 124.82C198.2 118.829 204.263 111.113 201.017 102.685C200.637 101.696 199.757 101.376 198.803 101.786C197.742 102.233 196.638 102.577 195.528 102.86C193.645 103.337 194.442 106.245 196.33 105.768C197.705 105.418 199.021 104.942 200.33 104.393C199.594 104.091 198.852 103.789 198.116 103.494C200.8 110.462 195.877 116.874 191.54 121.888C189.121 124.675 186.641 127.408 184.385 130.334C182.032 133.392 180.15 136.662 178.418 140.107C176.657 143.618 174.956 147.159 172.904 150.52C170.901 153.796 168.669 156.945 166.322 159.985C161.744 165.91 156.634 171.411 151.349 176.714C145.328 182.765 139.072 188.569 132.991 194.554C131.597 195.917 133.727 198.047 135.115 196.683Z" fill="black"/>
<path d="M195.92 107.801C195.54 107.759 195.878 107.819 195.956 107.843C195.51 107.735 195.992 107.916 195.787 107.771C195.552 107.602 195.968 108.048 195.661 107.632C195.703 107.692 195.884 108.012 195.691 107.638C195.709 107.674 195.751 107.795 195.751 107.849C195.775 108.241 195.745 107.505 195.769 107.922C195.787 108.193 195.781 108.465 195.757 108.736C195.727 109.201 195.787 108.573 195.745 108.863C195.727 108.996 195.703 109.122 195.679 109.255C195.624 109.532 195.564 109.804 195.492 110.075C195.323 110.745 195.106 111.409 194.87 112.06C194.134 114.123 193.169 116.084 192.18 118.135C187.975 126.847 183.148 135.172 177.097 142.737C171.185 150.134 164.724 157.095 159.469 165.005C156.869 168.914 154.667 173.077 151.995 176.944C149.316 180.823 145.914 183.99 142.644 187.35C141.063 188.979 139.525 190.668 138.204 192.52C136.901 194.354 135.845 196.345 134.777 198.318C133.739 200.249 132.69 202.179 131.381 203.941C130.192 205.545 128.696 206.891 127.2 208.206C125.667 209.557 124.099 210.89 122.79 212.471C121.722 213.762 120.974 215.174 120.129 216.61C119.779 217.213 119.405 217.804 118.905 218.293C118.561 218.625 118.205 218.818 117.879 218.769C117.046 218.649 116.22 217.943 115.538 217.49C114.573 216.851 113.644 216.157 112.685 215.512C110.718 214.19 108.625 213.074 106.664 211.741C104.703 210.408 102.809 208.978 100.963 207.488C97.3733 204.586 93.8562 201.714 89.9409 199.241C86.0919 196.81 82.0982 194.626 78.1466 192.364C74.0383 190.011 70.0506 187.483 66.1171 184.841C57.7858 179.23 49.6897 173.27 41.1954 167.9C37.1715 165.361 33.033 162.911 29.3831 159.84C26.0469 157.035 23.2718 153.747 20.738 150.218C19.4047 148.354 17.9991 146.538 16.2918 145C15.6825 145.79 15.0732 146.58 14.4638 147.371C17.7035 149.735 20.5269 152.607 23.4166 155.376C26.3063 158.139 29.4193 160.643 32.5624 163.116C35.6693 165.56 38.8064 167.961 41.8409 170.494C43.4034 171.804 44.9418 173.149 46.4259 174.543C47.8557 175.888 49.1346 177.438 50.673 178.657C52.2476 179.906 54.0997 180.805 55.5234 182.228C56.2233 182.928 56.8989 183.682 57.6349 184.34C58.4313 185.052 59.3302 185.679 60.1687 186.343C63.3903 188.883 66.6299 191.404 69.9058 193.872C76.3308 198.704 82.9367 203.307 89.8564 207.416C98.0008 212.254 106.254 216.941 114.724 221.183C115.339 221.49 116.045 221.436 116.552 220.947C117.282 220.247 118.132 219.698 118.899 219.035C119.731 218.317 120.147 217.279 120.648 216.32C121.595 214.504 122.518 212.682 123.508 210.89C125.48 207.301 127.719 203.88 130.723 201.069C132.141 199.742 130.005 197.612 128.587 198.933C125.553 201.775 123.212 205.232 121.191 208.839C120.214 210.583 119.303 212.362 118.386 214.136C117.945 214.981 117.559 216.127 116.884 216.797C116.129 217.539 115.188 218.076 114.422 218.812C115.031 218.733 115.641 218.655 116.25 218.576C108.745 214.818 101.427 210.697 94.182 206.45C87.1416 202.324 80.3486 197.866 73.7789 193.015C70.5271 190.614 67.3297 188.153 64.1504 185.661C62.5276 184.394 60.7539 183.194 59.3 181.74C58.6002 181.04 57.9124 180.31 57.1885 179.628C56.3982 178.892 55.4631 178.313 54.5642 177.722C53.8463 177.251 53.1163 176.793 52.4588 176.244C51.6443 175.568 50.9505 174.742 50.1964 173.994C48.7847 172.588 47.3127 171.237 45.8105 169.927C42.8303 167.333 39.7113 164.902 36.5923 162.471C33.0752 159.72 29.5098 156.993 26.2641 153.922C22.9279 150.767 19.7124 147.491 15.9962 144.77C14.6147 143.763 12.9074 146.001 14.1682 147.141C16.0143 148.806 17.432 150.785 18.8799 152.788C20.1951 154.61 21.6007 156.378 23.121 158.031C26.3667 161.554 30.1855 164.407 34.1792 167.02C38.3479 169.746 42.583 172.341 46.7094 175.134C51.0591 178.084 55.3545 181.112 59.6801 184.093C63.897 187.006 68.1321 189.92 72.524 192.569C76.5117 194.976 80.6141 197.184 84.6259 199.543C88.6981 201.938 92.6918 204.49 96.3176 207.536C100.034 210.661 103.865 213.672 108.021 216.199C110.066 217.442 112.021 218.769 114.018 220.091C115.593 221.134 117.378 222.268 119.321 221.544C120.889 220.959 121.921 219.517 122.741 218.13C123.646 216.591 124.431 215.089 125.661 213.768C128.527 210.679 132.002 208.351 134.433 204.84C137.039 201.081 138.638 196.683 141.516 193.106C144.574 189.299 148.381 186.174 151.548 182.458C154.625 178.85 157.002 174.742 159.445 170.7C162.021 166.434 164.875 162.362 167.982 158.465C171.01 154.67 174.196 151.014 177.278 147.262C180.355 143.522 183.354 139.691 185.99 135.619C188.789 131.299 191.239 126.732 193.549 122.141C194.816 119.619 196.077 117.074 197.151 114.461C198.056 112.259 199.304 109.345 198.617 106.926C198.243 105.611 197.211 104.923 195.902 104.773C195.093 104.676 194.394 105.533 194.394 106.281C194.412 107.186 195.112 107.705 195.92 107.801Z" fill="black"/>
<path d="M90.146 177.553C90.1581 177.625 90.2124 178.017 90.1701 177.625C90.1822 177.746 90.1943 177.867 90.2003 177.987C90.2124 178.235 90.2124 178.476 90.2003 178.723C90.1943 178.844 90.1038 179.556 90.1641 179.194C90.1158 179.489 90.0615 179.785 90.0012 180.075C89.772 181.13 89.4341 182.162 89.1566 183.212C88.5775 185.384 88.2517 187.76 89.772 189.631C90.6045 190.656 91.8473 191.26 93.078 191.658C94.6043 192.152 96.2271 192.394 97.8198 192.158C100.468 191.766 102.676 189.938 104.016 187.682C105.415 185.329 105.94 182.5 105.475 179.809C105.264 178.597 104.788 177.384 104.07 176.376C103.316 175.315 102.296 174.639 101.108 174.15C98.6704 173.155 95.8651 173.022 93.2891 173.408C92.1368 173.577 90.9544 173.903 89.9469 174.5C88.8007 175.182 88.1371 176.159 87.7329 177.42C86.665 180.744 88.3241 184.08 90.7613 186.313C93.1564 188.515 96.2512 190.059 99.4909 190.463C100.299 190.566 100.999 189.697 100.999 188.955C100.999 188.056 100.305 187.549 99.4909 187.447C99.8408 187.489 99.3823 187.429 99.3401 187.417C99.1953 187.392 99.0565 187.362 98.9178 187.332C98.6704 187.278 98.4291 187.218 98.1878 187.145C97.6448 186.988 97.0174 186.759 96.6675 186.596C95.6118 186.113 94.4233 185.426 93.6149 184.792C92.6436 184.026 91.793 183.139 91.2259 182.204C90.6769 181.293 90.3933 180.412 90.4235 179.417C90.4295 179.314 90.4356 179.206 90.4416 179.103C90.4838 178.609 90.3753 179.363 90.4778 178.868C90.5381 178.597 90.6105 178.325 90.701 178.06C90.7614 177.885 90.8579 177.752 90.9544 177.523C90.9906 177.438 91.1414 177.336 90.888 177.595C90.9785 177.505 91.0811 177.408 91.1656 177.312C91.3164 177.131 91.1535 177.312 91.1052 177.348C91.1957 177.281 91.2802 177.221 91.3767 177.161C91.5396 177.058 91.7145 176.974 91.8835 176.883C92.2394 176.702 91.5879 176.986 91.974 176.841C92.0946 176.793 92.2153 176.751 92.3359 176.714C92.5893 176.63 92.8548 176.557 93.1142 176.497C94.9361 176.069 97.2406 176.129 99.141 176.654C99.3642 176.714 99.5874 176.787 99.8106 176.865C99.9373 176.907 100.064 176.956 100.191 177.01C99.877 176.883 100.269 177.052 100.305 177.07C100.486 177.167 100.673 177.257 100.848 177.372C100.933 177.426 101.011 177.48 101.096 177.535C101.186 177.601 101.162 177.577 101.017 177.474C101.078 177.523 101.132 177.571 101.186 177.619C101.313 177.746 101.439 177.867 101.554 178.005C101.325 177.722 101.608 178.108 101.633 178.144C101.711 178.265 101.789 178.391 101.862 178.518C102.176 179.079 102.2 179.146 102.375 179.761C102.447 180.02 102.501 180.28 102.556 180.539C102.568 180.606 102.616 180.925 102.58 180.642C102.598 180.786 102.61 180.931 102.622 181.082C102.658 181.625 102.646 182.168 102.598 182.711C102.55 183.194 102.652 182.421 102.574 182.904C102.556 183.025 102.531 183.151 102.507 183.272C102.453 183.544 102.393 183.809 102.314 184.074C102.157 184.629 101.988 185.064 101.838 185.39C101.602 185.878 101.331 186.349 101.017 186.789C101.035 186.765 100.752 187.145 100.872 186.988C100.993 186.831 100.691 187.199 100.716 187.175C100.529 187.392 100.329 187.604 100.118 187.797C99.4969 188.382 98.6523 188.883 97.7957 189.106C97.675 189.136 97.0235 189.251 97.2708 189.226C97.0235 189.257 96.7761 189.269 96.5288 189.263C95.7747 189.257 95.4851 189.178 94.6948 188.991C94.194 188.871 93.4158 188.617 93.1805 188.496C92.9694 188.388 92.7703 188.273 92.5652 188.153C92.5169 188.122 92.1911 187.863 92.4626 188.086C92.342 187.984 92.2334 187.875 92.1187 187.766C92.0644 187.718 92.0162 187.652 91.9679 187.598C92.2273 187.893 91.9438 187.543 91.8955 187.459C91.8593 187.399 91.8352 187.332 91.799 187.272C91.6783 187.079 91.8533 187.543 91.7628 187.151C91.7326 187.012 91.6542 186.409 91.6783 186.837C91.6663 186.62 91.6482 186.409 91.6542 186.192C91.6542 186.083 91.6663 185.969 91.6723 185.86C91.6783 185.818 91.7326 185.371 91.6964 185.607C91.6602 185.86 91.7206 185.474 91.7266 185.462C91.7568 185.305 91.7869 185.148 91.8171 184.991C91.9257 184.503 92.0524 184.014 92.1911 183.531C92.8125 181.317 93.5063 179.079 93.0538 176.757C92.897 175.954 91.9438 175.502 91.1957 175.701C90.3632 175.924 89.9892 176.751 90.146 177.553Z" fill="black"/>
<path d="M67.3173 158.676C66.1047 156.703 64.2647 155.804 61.9722 156.166C61.4836 156.245 61.0251 156.758 60.9165 157.222C60.1262 160.673 59.6435 165.017 61.4112 168.256C62.9495 171.086 66.7864 172.528 69.7968 172.956C71.5584 173.209 73.3743 173.185 75.0032 172.395C76.3907 171.719 77.2595 170.392 77.531 168.902C78.1041 165.741 77.2414 162.006 75.6789 159.225C74.7136 157.518 73.0787 156.305 71.1361 155.973C68.9522 155.599 66.7382 155.967 64.5422 155.967C64.5422 156.975 64.5422 157.976 64.5422 158.984C66.4245 158.93 68.2283 159.165 70.0562 159.617C71.854 160.064 73.6277 160.583 75.4556 160.89C76.258 161.023 77.0785 160.679 77.3138 159.834C77.5129 159.111 77.0664 158.115 76.258 157.976C74.3637 157.663 72.5297 157.114 70.6656 156.655C68.6566 156.166 66.6115 155.895 64.5422 155.961C62.6057 156.022 62.5936 158.978 64.5422 158.978C66.2374 158.978 67.9387 158.755 69.6339 158.821C70.8646 158.869 71.9747 159.243 72.7107 160.166C72.8977 160.402 73.2295 161.023 73.4226 161.433C73.4527 161.493 73.4829 161.56 73.507 161.626C73.495 161.596 73.4286 161.433 73.495 161.602C73.5613 161.765 73.6277 161.928 73.688 162.097C73.8087 162.423 73.9173 162.748 74.0138 163.08C74.4482 164.51 74.6774 165.668 74.6774 167.086C74.6774 167.394 74.6653 167.695 74.6291 167.997C74.6111 168.178 74.6291 167.985 74.6352 167.955C74.6231 168.027 74.611 168.093 74.599 168.166C74.5688 168.323 74.5326 168.48 74.4904 168.63C74.4723 168.685 74.3275 169.089 74.3939 168.938C74.4602 168.787 74.3094 169.095 74.2792 169.143C74.2491 169.197 74.044 169.463 74.1586 169.33C74.2732 169.197 73.9957 169.475 73.9474 169.523C74.1827 169.312 73.4467 169.807 73.5372 169.765C73.6518 169.71 73.3321 169.837 73.2657 169.861C73.1089 169.909 72.946 169.952 72.7831 169.988C72.7107 170.006 72.3608 170.066 72.6021 170.03C72.4272 170.054 72.2462 170.066 72.0652 170.078C71.7213 170.096 71.3714 170.09 71.0275 170.072C70.3519 170.03 69.8572 169.939 69.097 169.746C68.4817 169.59 67.6129 169.3 67.1967 169.119C66.5874 168.86 66.0022 168.546 65.4471 168.184C65.3024 168.093 65.1636 167.997 65.0248 167.894C65.2119 168.033 64.9585 167.84 64.8982 167.786C64.693 167.611 64.5 167.418 64.319 167.213C64.2164 167.098 64.3371 167.243 64.3492 167.261C64.2707 167.158 64.2044 167.05 64.132 166.935C64.0355 166.778 63.945 166.609 63.8665 166.44C63.9208 166.561 63.764 166.181 63.7398 166.109C63.6735 165.916 63.6192 165.723 63.5709 165.529C63.3537 164.685 63.2934 163.985 63.2753 163.086C63.2391 161.294 63.4322 159.72 63.8183 158.019C63.4684 158.368 63.1185 158.718 62.7625 159.074C63.1185 159.02 63.5166 159.098 63.7459 159.207C64.126 159.394 64.4336 159.768 64.6991 160.196C65.7247 161.849 68.3369 160.335 67.3173 158.676Z" fill="black"/>
</svg>
