<svg width="164" height="51" viewBox="0 0 164 51" fill="none" xmlns="http://www.w3.org/2000/svg">
<path opacity="0.3" d="M18.4995 10.625H12.9995L9.87451 17H15.3745L18.4995 10.625ZM40.1245 17L36.9995 10.625H31.4995L34.6245 17H40.1245ZM22.9162 35.445V21.25H11.3328L22.9162 35.445ZM27.0828 35.445L38.6662 21.25H27.0828V35.445ZM26.8328 10.625H23.1662L20.0412 17H29.9578L26.8328 10.625Z" fill="#4F0E82"/>
<path d="M39.5832 6.375H10.4165L4.1665 19.125L24.9998 44.625L45.8332 19.125L39.5832 6.375ZM36.9998 10.625L40.1248 17H34.604L31.479 10.625H36.9998ZM12.9998 10.625H18.5207L15.3957 17H9.87484L12.9998 10.625ZM22.9165 35.445L11.3332 21.25H22.9165V35.445ZM20.0415 17L23.1665 10.625H26.8332L29.9582 17H20.0415ZM27.0832 35.445V21.25H38.6665L27.0832 35.445Z" fill="#4F0E82"/>
<path opacity="0.3" d="M74.98 10.625H69.04L65.665 17H71.605L74.98 10.625ZM98.335 17L94.96 10.625H89.02L92.395 17H98.335ZM79.75 35.445V21.25H67.24L79.75 35.445ZM84.25 35.445L96.76 21.25H84.25V35.445ZM83.98 10.625H80.02L76.645 17H87.355L83.98 10.625Z" fill="#4F0E82"/>
<path d="M97.7495 6.375H66.2495L59.4995 19.125L81.9995 44.625L104.5 19.125L97.7495 6.375ZM94.9595 10.625L98.3345 17H92.372L88.997 10.625H94.9595ZM69.0395 10.625H75.002L71.627 17H65.6645L69.0395 10.625ZM79.7495 35.445L67.2395 21.25H79.7495V35.445ZM76.6445 17L80.0195 10.625H83.9795L87.3545 17H76.6445ZM84.2495 35.445V21.25H96.7595L84.2495 35.445Z" fill="#4F0E82"/>
<path opacity="0.3" d="M132.5 10.625H127L123.875 17H129.375L132.5 10.625ZM154.125 17L151 10.625H145.5L148.625 17H154.125ZM136.916 35.445V21.25H125.333L136.916 35.445ZM141.083 35.445L152.666 21.25H141.083V35.445ZM140.833 10.625H137.166L134.041 17H143.958L140.833 10.625Z" fill="#4F0E82"/>
<path d="M153.583 6.375H124.417L118.167 19.125L139 44.625L159.833 19.125L153.583 6.375ZM151 10.625L154.125 17H148.604L145.479 10.625H151ZM127 10.625H132.521L129.396 17H123.875L127 10.625ZM136.917 35.445L125.333 21.25H136.917V35.445ZM134.042 17L137.167 10.625H140.833L143.958 17H134.042ZM141.083 35.445V21.25H152.667L141.083 35.445Z" fill="#4F0E82"/>
</svg>
