<svg width="24" height="24" viewBox="0 0 24 24" fill="none" xmlns="http://www.w3.org/2000/svg">
<path d="M6.14915 7.8663C5.93533 7.22486 5.432 6.72152 4.79055 6.50771C4.13774 6.2901 4.13774 5.36671 4.79055 5.14911C5.432 4.9353 5.93534 4.43196 6.14915 3.79051C6.36675 3.1377 7.29014 3.1377 7.50775 3.79051C7.72156 4.43196 8.2249 4.9353 8.86634 5.14911C9.51916 5.36671 9.51916 6.2901 8.86634 6.50771C8.2249 6.72152 7.72156 7.22486 7.50775 7.8663C7.29014 8.51912 6.36675 8.51912 6.14915 7.8663Z" stroke="#4F0E82" stroke-width="2" stroke-linecap="round"/>
<path d="M6.29798 20.7326C5.87035 19.4497 4.86367 18.4431 3.58078 18.0154C2.27516 17.5802 2.27516 15.7334 3.58078 15.2982C4.86367 14.8706 5.87035 13.8639 6.29798 12.581C6.73319 11.2754 8.57996 11.2754 9.01517 12.581C9.4428 13.8639 10.4495 14.8706 11.7324 15.2982C13.038 15.7334 13.038 17.5802 11.7324 18.0154C10.4495 18.4431 9.4428 19.4497 9.01517 20.7326C8.57996 22.0383 6.73319 22.0383 6.29798 20.7326Z" stroke="#4F0E82" stroke-width="2" stroke-linecap="round"/>
<path d="M14.1857 11.2616C15.1478 11.5823 15.9028 12.3373 16.2236 13.2995C16.55 14.2787 17.9351 14.2787 18.2615 13.2995C18.5822 12.3373 19.3372 11.5823 20.2994 11.2616C21.2786 10.9352 21.2786 9.55008 20.2994 9.22367C19.3372 8.90295 18.5822 8.14794 18.2615 7.18578C17.9351 6.20656 16.55 6.20656 16.2236 7.18578C15.9028 8.14794 15.1478 8.90295 14.1857 9.22367C13.2064 9.55008 13.2064 10.9352 14.1857 11.2616Z" stroke="#4F0E82" stroke-width="2" stroke-linecap="round"/>
</svg>
